<svg xmlns="http://www.w3.org/2000/svg" viewBox="0 0 470.641 470.641"><path d="M425.666 248.77l24.036-2.903c11.937-1.442 20.938-11.596 20.938-23.619 0-13.118-10.673-23.791-23.791-23.791h-16.743c-10.232 0-18.975 6.493-22.327 15.575L386.17 166.72a8.79 8.79 0 0 0-.171-.352l-1.638-3.594c-8.688-19.038-26.052-33.194-46.45-37.867a81.192 81.192 0 0 0-3.078-.635c-.868-23.377-9.874-45.642-25.611-63.049-3.332-3.687-9.023-3.974-12.711-.641s-3.975 9.025-.641 12.712c13.572 15.014 21.048 34.44 21.048 54.7 0 44.994-36.604 81.599-81.599 81.599s-81.6-36.605-81.6-81.599c0-35.623 22.955-65.968 54.843-77.071l-3.499 2.745a8.999 8.999 0 0 0-1.526 12.636 8.985 8.985 0 0 0 7.087 3.446 8.967 8.967 0 0 0 5.549-1.919l29.38-23.048a9 9 0 0 0-1.75-15.237l-33.841-15.788a9 9 0 1 0-7.609 16.312l4.994 2.33c-40.206 11.784-69.942 48.296-71.552 91.875a82.23 82.23 0 0 0-3.075.634c-20.396 4.675-37.76 18.831-46.448 37.871l-23.416 51.245c-3.355-9.077-12.096-15.566-22.324-15.566H23.791C10.673 198.457 0 209.129 0 222.248c0 12.024 9.002 22.178 20.938 23.619l24.035 2.903-22.989 22.989C10.81 282.934 5.463 298.946 7.682 314.592l7.863 55.438c2.021 14.249 9.408 26.675 19.912 35.36v25.18c0 14.976 12.184 27.16 27.16 27.16h45.04c14.977 0 27.16-12.184 27.16-27.16v-12.229h201.009v12.229c0 14.976 12.184 27.16 27.16 27.16h45.028c14.977 0 27.16-12.184 27.16-27.16v-25.176c10.506-8.685 17.895-21.113 19.916-35.364l7.863-55.439c2.219-15.647-3.128-31.66-14.302-42.834l-22.985-22.987zm-26.219 151.571H71.193c-18.192 0-33.927-13.07-37.458-30.733h403.169c-3.53 17.663-19.265 30.733-37.457 30.733zm-58.096-78.016l9.149 29.284h-12.466l-9.149-29.284h12.466zm-31.324 0l9.149 29.284H151.46l9.149-29.284h149.418zm-177.426 29.283H120.14l9.148-29.284h12.462l-9.149 29.284zm-31.319 0H31.115l-4.154-29.284h83.469l-9.148 29.284zm268.077 0l-9.149-29.284h83.469l-4.154 29.284h-70.166zm54.956-129.361a5.798 5.798 0 0 1 5.791-5.791h16.743a5.798 5.798 0 0 1 5.791 5.791 5.795 5.795 0 0 1-5.097 5.749l-23.229 2.805v-8.554zm-69.597-69.374c-5.558-.963-13.028-1.817-22.324-2.552a99.217 99.217 0 0 0 1.473-7.875l.027.006c7.727 1.77 14.852 5.406 20.824 10.421zm-217.977-10.421l.032-.007a98.715 98.715 0 0 0 1.472 7.873c-9.32.741-16.79 1.597-22.325 2.557 5.971-5.015 13.095-8.652 20.821-10.423zm-37.155 34.513c5.564-2.82 11.584-4.866 17.941-6.089 5.711-1.101 14.824-2.108 26.562-2.945 15.422 35.091 50.509 59.661 91.231 59.661 40.721 0 75.806-24.568 91.228-59.656 11.711.828 20.828 1.834 26.574 2.941 6.351 1.222 12.371 3.27 17.941 6.094l27.814 60.878H71.77l27.816-60.884zM18 222.247a5.798 5.798 0 0 1 5.791-5.791h16.743a5.798 5.798 0 0 1 5.791 5.791v8.555l-23.229-2.805a5.796 5.796 0 0 1-5.096-5.75zm45.351 33.602h343.938l28.637 28.638c5.35 5.349 8.62 12.422 9.36 19.838H25.354c.741-7.416 4.011-14.489 9.36-19.838l28.637-28.638zm53.468 174.722c0 5.051-4.109 9.16-9.16 9.16h-45.04c-5.051 0-9.16-4.109-9.16-9.16v-15.138a55.53 55.53 0 0 0 17.734 2.909h45.626v12.229zm300.358 0c0 5.051-4.109 9.16-9.16 9.16h-45.028c-5.051 0-9.16-4.109-9.16-9.16v-12.229h45.619c6.16 0 12.127-1.022 17.729-2.907v15.136z"/><path d="M210.345 142.372c13.233 0 24-10.766 24-24v-4.667c0-13.234-10.767-24-24-24s-24 10.766-24 24a9 9 0 0 0 18 0c0-3.308 2.691-6 6-6s6 2.692 6 6v4.667c0 3.308-2.691 6-6 6-13.233 0-24 10.766-24 24v10.333a9 9 0 0 0 9 9h30a9 9 0 0 0 0-18h-21v-1.333c0-3.308 2.691-6 6-6zm30.693-44.832l-4.667 35.751a9.001 9.001 0 0 0 8.924 10.165h21v15.249a9 9 0 0 0 18 0v-60a9 9 0 0 0-18 0v26.751h-10.749l3.34-25.586a8.999 8.999 0 0 0-7.759-10.089c-4.927-.642-9.446 2.83-10.089 7.759z"/></svg>