<svg xmlns="http://www.w3.org/2000/svg" viewBox="0 0 463.522 463.522"><path d="M293.115 108.353h-11.056c-17.306-19.162-41.016-30.937-66.588-33.185V68.59h14.803a9 9 0 0 0 8.945-9.987l-5.236-47.448a9 9 0 0 0-8.946-8.013h-37.133a9.001 9.001 0 0 0-8.946 8.013l-5.237 47.448a9 9 0 0 0 8.946 9.987h14.803v6.578c-25.572 2.248-49.281 14.023-66.588 33.185h-11.056a9 9 0 0 0-9 9v328.009a9 9 0 0 0 9 9h6.472v.16a9 9 0 0 0 9 9h142.344a9 9 0 0 0 9-9v-.16h6.472a9 9 0 0 0 9-9V117.353a8.999 8.999 0 0 0-8.999-9zm-97.149-87.21h21.01l3.25 29.448h-27.511l3.251-29.448zm-67.139 105.21h155.288v310.009H128.827V126.353zm77.644-33.584c17.698 0 34.644 5.533 48.712 15.584H157.76c14.068-10.051 31.013-15.584 48.711-15.584z"/><path d="M346.377 54.69l-59.356-18.548 59.356-18.548a9 9 0 0 0 5.906-11.275C350.8 1.574 345.749-1.07 341.008.413l-86.847 27.139a9 9 0 0 0 0 17.18l86.847 27.139a9.008 9.008 0 0 0 2.688.412 9.001 9.001 0 0 0 2.681-17.593zm-82.461 81.175a9 9 0 0 0-9 9v272.986c0 4.971 4.029 9 9 9s9-4.029 9-9V144.865a9 9 0 0 0-9-9z"/></svg>