<svg xmlns="http://www.w3.org/2000/svg" viewBox="0 0 435.73 435.73"><path d="M426.73 80.164h-20.251v-3.115a9 9 0 0 0-9-9h-46.498a9 9 0 0 0-9 9v3.115h-73.197L249.726 31.63l1.694-.665a9 9 0 1 0-6.58-16.753L139.182 55.713a9 9 0 1 0 6.58 16.754l1.691-.665 3.737 9.515C66.2 91.163 0 163.568 0 251.154c0 94.284 76.706 170.99 170.99 170.99s170.99-76.706 170.99-170.99c0-22.533-4.254-44.242-12.664-64.72h12.665v3.109a9 9 0 0 0 9 9h46.498a9 9 0 0 0 9-9v-3.109h20.251a9 9 0 0 0 9-9v-88.27a9 9 0 0 0-9-9zM164.207 65.221l68.767-27.01 16.474 41.953H170.99c-.304 0-.606.01-.91.012l-5.873-14.955zm6.783 103.209c.001 0 .001 0 0 0-45.614 0-82.724 37.11-82.724 82.724s37.109 82.724 82.724 82.724 82.724-37.11 82.724-82.724c0-26.188-12.246-49.556-31.297-64.724h87.229c9.508 20.29 14.334 42.035 14.334 64.725 0 84.359-68.631 152.99-152.99 152.99S18 335.513 18 251.154c0-84.359 68.631-152.99 152.99-152.99h170.991v70.27l-170.991-.004zm19.221 82.724c0 10.598-8.622 19.22-19.221 19.22-10.598 0-19.22-8.622-19.22-19.22s8.622-19.221 19.22-19.221c10.599 0 19.221 8.623 19.221 19.221zM179.99 215.04v-27.97a64.128 64.128 0 0 1 15.246 4.09l-13.986 24.223a35.42 35.42 0 0 0-1.26-.343zm-18 0a37.04 37.04 0 0 0-1.26.343l-13.985-24.223a64.128 64.128 0 0 1 15.246-4.09v27.97zm-30.819-14.855l13.981 24.216c-.311.3-.615.605-.916.916l-24.216-13.981a65.296 65.296 0 0 1 11.151-11.151zm-20.175 26.724l24.224 13.986c-.12.417-.237.836-.343 1.259h-27.971a64.168 64.168 0 0 1 4.09-15.245zm23.881 33.245c.106.423.223.841.343 1.259l-24.224 13.986a64.215 64.215 0 0 1-4.09-15.245h27.971zm9.36 16.838c.3.311.605.615.915.915l-13.981 24.216a65.285 65.285 0 0 1-11.15-11.15l24.216-13.981zm16.493 9.932c.418.12.836.238 1.26.343v27.97a64.108 64.108 0 0 1-15.245-4.09l13.985-24.223zm19.26.344c.423-.105.842-.223 1.259-.343l13.986 24.223a64.12 64.12 0 0 1-15.245 4.09v-27.97zm30.819 14.855l-13.981-24.215c.31-.3.615-.605.916-.916l24.216 13.981a65.29 65.29 0 0 1-11.151 11.15zm20.175-26.723l-24.223-13.985c.12-.418.238-.836.343-1.26h27.97a64.18 64.18 0 0 1-4.09 15.245zm-23.88-33.246a35.42 35.42 0 0 0-.343-1.26l24.223-13.985a64.168 64.168 0 0 1 4.09 15.245h-27.97zm-9.36-16.838a35.96 35.96 0 0 0-.916-.916l13.981-24.215a65.285 65.285 0 0 1 11.15 11.15l-24.215 13.981zm190.735-44.773h-28.498V86.049h28.498v94.494zm29.251-12.109h-11.251v-70.27h11.251v70.27z"/></svg>