<svg xmlns="http://www.w3.org/2000/svg" viewBox="0 0 408.987 408.987"><path d="M305.299 328.853a53.31 53.31 0 0 0-42.872-12.241l-78.524 12.076-22.293-93.446a127.456 127.456 0 0 0-36.037-62.782 127.6 127.6 0 0 0-35.79-24.11c13.655-9.651 20.502-27.188 15.776-44.201l-9.268-33.361c-6.015-21.647-28.516-34.37-50.168-28.353-13.048 3.625-20.714 17.189-17.09 30.238l22.099 79.545c.106.38 42.998 179.748 42.998 179.748a37.083 37.083 0 0 0-2.774 14.094c0 9.567 3.625 18.302 9.569 24.911v5.197c0 18.097 14.723 32.82 32.819 32.82h157.36c18.097 0 32.82-14.723 32.82-32.82v-6.8a53.318 53.318 0 0 0-18.625-40.515zM50.942 59.778a22.719 22.719 0 0 1 6.081-.833c9.962 0 19.131 6.605 21.924 16.661l9.268 33.361c3.357 12.084-3.742 24.647-15.827 28.005l-6.321 1.756-19.69-70.873a6.568 6.568 0 0 1 4.565-8.077zm62.196 125.698a109.502 109.502 0 0 1 30.962 53.939l21.953 92.018-2.923.45c-5.591-13.55-18.939-23.114-34.484-23.114a37.06 37.06 0 0 0-20.131 5.925L71.766 160.607a109.583 109.583 0 0 1 41.372 24.869zm-3.783 160.583c0-10.637 8.654-19.291 19.291-19.291s19.291 8.654 19.291 19.291-8.654 19.291-19.291 19.291-19.291-8.653-19.291-19.291zm196.57 30.108c0 8.172-6.648 14.82-14.82 14.82h-157.36c-5.942 0-11.066-3.524-13.426-8.586 2.68.614 5.465.949 8.328.949 19.338 0 35.28-14.796 37.112-33.661l99.407-15.288c10.209-1.571 20.57 1.384 28.415 8.113s12.345 16.517 12.345 26.852v6.801z"/><path d="M377.903 146.943l-17.238-70.179c-13.259-53.974-67.957-87.1-121.931-73.843-26.146 6.423-48.228 22.643-62.175 45.672-13.946 23.03-18.091 50.112-11.668 76.259l17.238 70.179c6.423 26.146 22.643 48.227 45.672 62.174 15.953 9.661 33.849 14.618 52.032 14.618 8.067 0 16.191-.976 24.227-2.95 26.146-6.422 48.228-22.642 62.175-45.672 13.946-23.029 18.091-50.111 11.668-76.258zm-27.065 66.934c-11.456 18.917-29.594 32.241-51.07 37.516-44.333 10.889-89.266-16.318-100.157-60.656l-17.238-70.179c-5.275-21.477-1.872-43.724 9.585-62.641 11.456-18.917 29.594-32.241 51.07-37.516a82.708 82.708 0 0 1 19.747-2.4c37.224 0 71.143 25.328 80.41 63.056l17.238 70.179c5.275 21.478 1.872 43.724-9.585 62.641z"/></svg>