<svg xmlns="http://www.w3.org/2000/svg" viewBox="0 0 458.34 458.34"><path d="M366.184 238.202a9 9 0 0 0-9-9h-23.955l-14.358-31.429c-5.519-12.087-16.545-21.077-29.497-24.046-20.275-4.646-100.246-4.646-120.523 0-12.951 2.97-23.978 11.958-29.495 24.043l-14.36 31.432h-23.839c-4.971 0-9 4.029-9 9s4.029 9 9 9h14.317l-12.581 12.582c-7.311 7.309-10.808 17.782-9.355 28.016l4.554 32.106c1.217 8.575 5.44 16.128 11.494 21.661v12.866c0 10.762 8.755 19.517 19.517 19.517h26.083c10.762 0 19.517-8.755 19.517-19.517v-3.294h108.83v3.294c0 10.762 8.755 19.517 19.517 19.517h26.076c10.762 0 19.518-8.755 19.518-19.517v-12.864c6.055-5.533 10.279-13.087 11.496-21.663l4.554-32.106c1.45-10.233-2.047-20.707-9.354-28.015l-12.582-12.583h14.43c4.967 0 8.996-4.029 8.996-9zm-42.024 94.936H134.066c-7.083 0-13.376-4.137-16.41-10.222h222.916c-3.035 6.085-9.328 10.222-16.412 10.222zm-36.429-37.604l2.931 9.383H167.564l2.931-9.383h117.236zm-139.026 9.383h-34.56l-1.331-9.383h38.822l-2.931 9.383zm160.816 0l-2.931-9.383h38.823l-1.331 9.383h-34.561zm-197.187-27.383c.749-1.857 1.842-3.579 3.285-5.022l15.475-15.475h196.04l15.474 15.475c1.443 1.442 2.536 3.165 3.285 5.022H112.334zm43.396-72.286c3.207-7.026 9.616-12.25 17.144-13.977 17.87-4.095 94.609-4.095 112.479 0 7.527 1.726 13.937 6.951 17.146 13.979l15.437 33.787H140.294l15.436-33.789zm.97 149.184a1.52 1.52 0 0 1-1.517 1.517H129.1c-.836 0-1.517-.68-1.517-1.517v-3.885c2.11.387 4.276.592 6.481.592H156.7v3.293zm173.941 0a1.52 1.52 0 0 1-1.518 1.517h-26.076c-.836 0-1.517-.68-1.517-1.517v-3.294h22.63c2.205 0 4.371-.204 6.48-.591v3.885zM76.46 173.525l-26.178-8.921v-26.255c0-4.971-4.029-9-9-9s-9 4.029-9 9v20.121l-20.377-6.944c-4.703-1.601-9.818.911-11.422 5.616s.91 9.819 5.615 11.422l64.555 22a8.983 8.983 0 0 0 2.904.483 9.004 9.004 0 0 0 8.518-6.099 9 9 0 0 0-5.615-11.423zm0 137.201l-64.555-22c-4.703-1.602-9.818.911-11.422 5.616s.91 9.819 5.615 11.422l64.555 22a8.983 8.983 0 0 0 2.904.483 9.004 9.004 0 0 0 8.518-6.099 8.999 8.999 0 0 0-5.615-11.422zm0 27.44l-64.555-22c-4.703-1.603-9.818.911-11.422 5.616s.91 9.819 5.615 11.422l64.555 22a8.983 8.983 0 0 0 2.904.483 9.004 9.004 0 0 0 8.518-6.099 8.999 8.999 0 0 0-5.615-11.422zm0 27.44l-64.555-22a9.002 9.002 0 0 0-11.422 5.616 8.999 8.999 0 0 0 5.615 11.422l26.184 8.923v25.08c0 4.971 4.029 9 9 9s9-4.029 9-9v-18.946l20.371 6.942a8.983 8.983 0 0 0 2.904.483 9.004 9.004 0 0 0 8.518-6.099c1.604-4.703-.91-9.817-5.615-11.421zm0-164.641l-64.555-22c-4.703-1.603-9.818.911-11.422 5.616a8.999 8.999 0 0 0 5.615 11.422l64.555 22a8.983 8.983 0 0 0 2.904.483 9.004 9.004 0 0 0 8.518-6.099 9 9 0 0 0-5.615-11.422zm0 27.44l-64.555-22c-4.703-1.602-9.818.911-11.422 5.616s.91 9.819 5.615 11.422l64.555 22a8.983 8.983 0 0 0 2.904.483 9.004 9.004 0 0 0 8.518-6.099 9 9 0 0 0-5.615-11.422zm0 27.44l-64.555-22c-4.703-1.601-9.818.911-11.422 5.616s.91 9.819 5.615 11.422l64.555 22a8.983 8.983 0 0 0 2.904.483 9.004 9.004 0 0 0 8.518-6.099 9 9 0 0 0-5.615-11.422zm0 27.44l-64.555-22a9.002 9.002 0 0 0-11.422 5.616 8.999 8.999 0 0 0 5.615 11.422l64.555 22a8.983 8.983 0 0 0 2.904.483 9.004 9.004 0 0 0 8.518-6.099 9 9 0 0 0-5.615-11.422zm305.42-109.76a9 9 0 0 0-5.615 11.422 9.002 9.002 0 0 0 8.518 6.099 9.01 9.01 0 0 0 2.904-.483l64.555-22a9 9 0 0 0 5.615-11.422c-1.603-4.705-6.72-7.217-11.422-5.616l-20.378 6.945v-20.122c0-4.971-4.029-9-9-9s-9 4.029-9 9v26.256l-26.177 8.921zm64.555 115.201l-64.555 22a9 9 0 0 0-5.615 11.422 9.002 9.002 0 0 0 8.518 6.099 9.01 9.01 0 0 0 2.904-.483l64.555-22a9 9 0 0 0 5.615-11.422c-1.603-4.705-6.72-7.218-11.422-5.616zm0 27.44l-64.555 22a9 9 0 0 0-5.615 11.422 9.002 9.002 0 0 0 8.518 6.099 9.01 9.01 0 0 0 2.904-.483l64.555-22a9 9 0 0 0 5.615-11.422c-1.603-4.706-6.72-7.219-11.422-5.616zm0 27.44l-64.555 22a9 9 0 0 0-5.615 11.422 9.002 9.002 0 0 0 8.518 6.099 9.01 9.01 0 0 0 2.904-.483l20.37-6.942v18.946c0 4.971 4.029 9 9 9s9-4.029 9-9v-25.08l26.185-8.924a9 9 0 0 0 5.615-11.422c-1.603-4.705-6.72-7.218-11.422-5.616zm0-164.641l-64.555 22a9 9 0 0 0-5.615 11.422 9.002 9.002 0 0 0 8.518 6.099 9.01 9.01 0 0 0 2.904-.483l64.555-22a9 9 0 0 0 5.615-11.422c-1.603-4.705-6.72-7.219-11.422-5.616zm0 27.44l-64.555 22a9 9 0 0 0-5.615 11.422 9.002 9.002 0 0 0 8.518 6.099 9.01 9.01 0 0 0 2.904-.483l64.555-22a9 9 0 0 0 5.615-11.422c-1.603-4.705-6.72-7.218-11.422-5.616zm0 27.44l-64.555 22a9 9 0 0 0-5.615 11.422 9.002 9.002 0 0 0 8.518 6.099 9.01 9.01 0 0 0 2.904-.483l64.555-22a9 9 0 0 0 5.615-11.422c-1.603-4.705-6.72-7.217-11.422-5.616zm0 27.44l-64.555 22a9 9 0 0 0-5.615 11.422 9.002 9.002 0 0 0 8.518 6.099 9.01 9.01 0 0 0 2.904-.483l64.555-22a9 9 0 0 0 5.615-11.422c-1.603-4.705-6.72-7.218-11.422-5.616zm-81.206-156.316h18.942c4.971 0 9-4.029 9-9s-4.029-9-9-9h-25.076l-8.921-26.177a9 9 0 1 0-17.037 5.806l22 64.555a9.002 9.002 0 0 0 8.518 6.099 9 9 0 0 0 8.519-11.905l-6.945-20.378zm-37.533 26.184a9.002 9.002 0 0 0 8.518 6.099 9 9 0 0 0 8.519-11.905l-22-64.555a9 9 0 1 0-17.037 5.806l22 64.555zm-27.441 0a9.002 9.002 0 0 0 8.518 6.099 9 9 0 0 0 8.519-11.905l-22-64.555a9 9 0 1 0-17.037 5.806l22 64.555zm-137.2 0a9.002 9.002 0 0 0 8.518 6.099 9 9 0 0 0 8.519-11.905l-22-64.555a9 9 0 1 0-17.037 5.806l22 64.555zm-27.44 0a9.002 9.002 0 0 0 8.518 6.099 9 9 0 0 0 8.519-11.905l-22-64.555a9 9 0 1 0-17.037 5.806l22 64.555zm137.201 0a9.002 9.002 0 0 0 8.518 6.099 9 9 0 0 0 8.519-11.905l-22-64.555a9 9 0 1 0-17.037 5.806l22 64.555zm-27.441 0a9.002 9.002 0 0 0 8.518 6.099 9 9 0 0 0 8.519-11.905l-22-64.555a9 9 0 1 0-17.037 5.806l22 64.555zm-27.44 0a9.002 9.002 0 0 0 8.518 6.099 9 9 0 0 0 8.519-11.905l-22-64.555a9 9 0 1 0-17.037 5.806l22 64.555zm-27.441 0a9.002 9.002 0 0 0 8.518 6.099 9 9 0 0 0 8.519-11.905l-22-64.555a9 9 0 1 0-17.037 5.806l22 64.555zM74.17 104.969h25.08l8.923 26.184a9.002 9.002 0 0 0 8.518 6.099 9 9 0 0 0 8.519-11.905l-22-64.555a9 9 0 1 0-17.037 5.806l6.942 20.371H74.17a9 9 0 0 0 0 18z"/></svg>