<svg xmlns="http://www.w3.org/2000/svg" viewBox="0 0 455.568 455.568"><path d="M56.468 126.213a9 9 0 0 0 13.5 7.794l59.376-34.281a9.002 9.002 0 0 0 0-15.588l-59.376-34.28a8.999 8.999 0 0 0-13.5 7.794v8.781H9a9 9 0 0 0-9 9v32.999a9 9 0 0 0 9 9h47.468v8.781zM18 99.432V84.433h47.468a9 9 0 0 0 9-9V73.24l32.376 18.692-32.376 18.692v-2.193a9 9 0 0 0-9-9H18zm428.568 238.704H399.1v-8.781a9 9 0 0 0-13.5-7.794l-59.376 34.281a9.002 9.002 0 0 0 0 15.588l59.376 34.28a8.994 8.994 0 0 0 9 0 9.002 9.002 0 0 0 4.5-7.794v-8.781h47.468a9 9 0 0 0 9-9v-32.999a9 9 0 0 0-9-9zm-9 32.999H390.1a9 9 0 0 0-9 9v2.193l-32.376-18.692 32.376-18.692v2.193a9 9 0 0 0 9 9h47.468v14.998z"/><path d="M331.275 294.534a9 9 0 0 0 9-9v-33.75h64.5a9 9 0 0 0 9-9v-30a9 9 0 0 0-9-9h-64.5v-33.75a9 9 0 0 0-9-9H311.78V56.195c0-27.791-22.609-50.4-50.4-50.4h-67.191c-27.791 0-50.4 22.609-50.4 50.4v104.839h-19.503a9 9 0 0 0-9 9v33.75h-64.49a9 9 0 0 0-9 9v30a9 9 0 0 0 9 9h64.489v33.75a9 9 0 0 0 9 9h19.503v104.839c0 27.791 22.609 50.4 50.4 50.4h67.191c27.791 0 50.4-22.609 50.4-50.4V294.534h19.496zm64.5-72.75v12h-55.5v-12h55.5zm-335.979 12v-12h55.489v12H59.796zm73.489 42.75v-97.5h10.503v97.5h-10.503zM198.83 406.54l.053-.092c8.26-14.664 8.26-32.884-.001-47.549a.786.786 0 0 1-.024-.042c-5.169-9.2-5.17-20.619-.001-29.82l.023-.042c8.263-14.666 8.263-32.886 0-47.551l-.03-.053c-5.153-9.184-5.159-20.575-.017-29.764l.046-.082c8.264-14.667 8.263-32.889-.002-47.556-5.193-9.216-5.193-20.667 0-29.884 8.256-14.65 8.266-32.847.029-47.506l-.032-.056c-5.191-9.216-5.191-20.666.005-29.889 8.249-14.641 8.262-32.827.041-47.479l-.044-.078c-4.362-7.742-5.044-17.055-2.079-25.301h18.079c-2.486 11.473-.813 23.703 5.066 34.137.014.024.027.049.042.073 5.153 9.204 5.141 20.62-.043 29.821-8.253 14.648-8.262 32.845-.028 47.502l.032.058c5.192 9.216 5.192 20.666-.001 29.883-8.265 14.667-8.265 32.89 0 47.558 5.193 9.217 5.193 20.667.001 29.883l-.028.05c-8.224 14.631-8.23 32.791-.021 47.428l.051.092c5.186 9.205 5.191 20.639.018 29.85l-.023.042c-8.263 14.666-8.263 32.886 0 47.551l.025.044c5.173 9.209 5.167 20.642-.019 29.846l-.048.086c-5.849 10.421-7.508 22.625-5.024 34.074h-18.077c-2.971-8.246-2.295-17.552 2.031-25.234zm36.79-.073l.048-.085c8.224-14.654 8.211-32.841-.039-47.483l-.024-.043c-5.167-9.197-5.168-20.613-.003-29.812a.778.778 0 0 0 .028-.049c8.245-14.637 8.26-32.816.046-47.465l-.053-.095c-5.192-9.216-5.192-20.665 0-29.881.009-.016.019-.032.027-.049 8.241-14.659 8.231-32.86-.025-47.514-5.192-9.217-5.192-20.668.001-29.885 8.256-14.651 8.265-32.851.027-47.509-.01-.018-.021-.035-.03-.053-5.191-9.216-5.191-20.666.004-29.889 8.264-14.666 8.264-32.888 0-47.554l-.042-.074c-4.327-7.728-4.997-17.01-2.04-25.232h18.08c-2.48 11.446-.82 23.645 5.025 34.063l.044.078c5.177 9.188 5.192 20.597.048 29.799l-.052.091c-8.253 14.648-8.262 32.845-.028 47.502l.032.058c5.192 9.216 5.192 20.667-.001 29.883-8.265 14.667-8.265 32.89 0 47.559 5.193 9.216 5.193 20.666.001 29.882l-.03.054c-8.236 14.658-8.228 32.855.026 47.505l.03.054c5.16 9.196 5.159 20.606-.005 29.802l-.026.047c-8.262 14.665-8.262 32.885-.001 47.551a.82.82 0 0 1 .025.043c5.174 9.209 5.169 20.643.025 29.775l-.053.092c-5.878 10.436-7.55 22.667-5.062 34.141h-18.078c-2.968-8.248-2.287-17.564 2.075-25.307zm-73.832-7.094V56.195c0-11.696 6.231-21.963 15.546-27.66-1.156 10.015.774 20.333 5.818 29.323l.044.078c5.192 9.216 5.192 20.666-.003 29.889-8.254 14.648-8.264 32.846-.029 47.503l.032.058c5.192 9.216 5.192 20.667-.001 29.883-8.265 14.667-8.265 32.891.001 47.558 5.178 9.189 5.193 20.601.046 29.803-.018.029-.034.058-.05.087-8.263 14.666-8.263 32.886 0 47.552l.03.054c5.16 9.196 5.159 20.606-.005 29.801l-.027.048c-8.261 14.666-8.261 32.886.002 47.551a.72.72 0 0 1 .022.04c5.176 9.21 5.17 20.646.026 29.777l-.053.092c-5.074 9.008-7.017 19.356-5.857 29.399-9.312-5.697-15.542-15.963-15.542-27.658zm131.992 0c0 14.917-10.136 27.504-23.879 31.255-2.511-7.953-1.701-16.761 2.426-24.088l.053-.092c8.26-14.666 8.259-32.885-.003-47.549l-.024-.042c-5.167-9.199-5.168-20.616-.002-29.814l.026-.047c8.263-14.666 8.263-32.886 0-47.551l-.03-.053c-5.167-9.208-5.159-20.637.024-29.838a.728.728 0 0 0 .03-.054c8.237-14.658 8.229-32.858-.027-47.509-5.193-9.216-5.193-20.667 0-29.884 8.256-14.65 8.266-32.847.029-47.506l-.032-.056c-5.176-9.187-5.191-20.595-.048-29.796l.053-.093c8.249-14.641 8.262-32.827.041-47.479l-.044-.078c-4.16-7.385-4.978-16.201-2.472-24.156 13.743 3.752 23.879 16.339 23.879 31.255v343.175zm28.495-220.339v97.5H311.78v-97.5h10.495z"/></svg>