<svg xmlns="http://www.w3.org/2000/svg" viewBox="0 0 446.3 446.3"><path d="M437.3 103.682h-40.304V68.995a9 9 0 0 0-9-9h-34.38a9 9 0 0 0-9 9v34.688H101.684V68.995a9 9 0 0 0-9-9H58.305a9 9 0 0 0-9 9v34.688H9a9 9 0 0 0-9 9v57.039a9 9 0 0 0 9 9h1.651v198.583a9 9 0 0 0 9 9h407a9 9 0 0 0 9-9V178.721h1.648a9 9 0 0 0 9-9v-57.039c.001-4.97-4.028-9-8.999-9zm-74.684-25.687h16.38v25.688h-16.38V77.995zm-295.311 0h16.379v25.688H67.305V77.995zM18 121.682h410.3v39.039H18v-39.039zm399.651 246.623h-389V178.721h389v189.584z"/><path d="M77.799 251.572v8a9 9 0 0 0 18 0v-8h8a9 9 0 0 0 0-18h-8v-8a9 9 0 0 0-18 0v8h-8a9 9 0 0 0 0 18h8z"/><path d="M86.799 291.572c27.019 0 49-21.981 49-49s-21.981-49-49-49-49 21.981-49 49 21.981 49 49 49zm0-80c17.094 0 31 13.906 31 31s-13.906 31-31 31-31-13.906-31-31 13.906-31 31-31zm292.872 40a9 9 0 0 0 0-18h-34a9 9 0 0 0 0 18h34z"/><path d="M362.671 291.572c27.019 0 49-21.981 49-49s-21.981-49-49-49-49 21.981-49 49 21.981 49 49 49zm0-80c17.094 0 31 13.906 31 31s-13.906 31-31 31-31-13.906-31-31 13.906-31 31-31zm-169.318 63.487a9 9 0 0 0 9.979.638l29.866-17.308-20.193 75.858c-1.278 4.803 1.579 9.734 6.382 11.012a8.994 8.994 0 0 0 2.321.305 9.003 9.003 0 0 0 8.691-6.687l25.782-96.854a9 9 0 0 0-13.209-10.102l-29.866 17.308 12.69-47.673c1.278-4.803-1.579-9.734-6.382-11.012a8.999 8.999 0 0 0-11.013 6.382l-18.279 68.669a9 9 0 0 0 3.231 9.464z"/></svg>