<svg xmlns="http://www.w3.org/2000/svg" viewBox="0 0 470.641 470.641"><path d="M425.667 241.03l24.035-2.903c11.938-1.442 20.938-11.596 20.938-23.619 0-13.119-10.673-23.791-23.791-23.791h-16.743c-10.232 0-18.976 6.494-22.328 15.577l-23.417-51.261c-8.688-19.039-26.052-33.194-46.45-37.867a81.079 81.079 0 0 0-3.06-.631c-.84-23.525-9.876-45.768-25.911-63.364-17.918-19.665-42.422-31.175-68.998-32.409-26.585-1.243-52.041 7.954-71.705 25.872-19.665 17.918-31.175 42.422-32.409 68.998-.014.301-.02.601-.031.902a82.16 82.16 0 0 0-3.074.634c-20.396 4.675-37.76 18.831-46.449 37.871l-23.415 51.245c-3.355-9.077-12.095-15.566-22.324-15.566H23.791C10.673 190.717 0 201.389 0 214.508c0 12.023 9.001 22.177 20.938 23.619l24.031 2.903-22.988 22.989C10.806 275.206 5.462 291.22 7.687 306.852l7.86 55.443c1.976 13.904 9.154 26.575 19.911 35.457v25.08c0 14.976 12.184 27.16 27.16 27.16h45.04c14.977 0 27.16-12.184 27.16-27.16V410.6h201.009v12.232c0 14.976 12.184 27.16 27.16 27.16h45.028c14.977 0 27.16-12.184 27.16-27.16v-25.079c10.759-8.883 17.937-21.553 19.912-35.457l7.871-55.446c2.214-15.649-3.135-31.662-14.308-42.834l-22.983-22.986zm-4.592 144.856c-6.38 4.392-13.858 6.713-21.627 6.713H71.188a37.975 37.975 0 0 1-21.63-6.715 38.35 38.35 0 0 1-15.827-24.015h403.173a38.347 38.347 0 0 1-15.829 24.017zm-79.724-71.301l9.149 29.284h-12.465l-9.148-29.284h12.464zm-31.323 0l9.148 29.284H151.46l9.148-29.284h149.42zm-177.426 29.284h-12.461l9.149-29.284h12.461l-9.149 29.284zm-31.32 0H31.115l-4.151-29.284h83.467l-9.149 29.284zm268.077 0l-9.149-29.284h83.471l-4.156 29.284h-70.166zm54.956-129.361a5.798 5.798 0 0 1 5.791-5.791h16.743a5.798 5.798 0 0 1 5.791 5.791 5.796 5.796 0 0 1-5.097 5.749l-23.229 2.806v-8.555zm-25.438 15.601h-28.958l-50.879-55.836a98.297 98.297 0 0 0 7.574-14.072c11.68.828 20.774 1.832 26.511 2.936 6.35 1.222 12.371 3.27 17.939 6.094l27.813 60.878zm-96.474-36.236a102.228 102.228 0 0 0 5.356-5.254l69.1 75.833c2.785 3.057 2.564 7.81-.492 10.595s-7.811 2.564-10.596-.492l-69.117-75.852a101.105 101.105 0 0 0 5.749-4.83zm52.314-48.74c-5.555-.962-13.021-1.816-22.311-2.551a99.745 99.745 0 0 0 1.469-7.874l.018.004c7.728 1.77 14.853 5.407 20.824 10.421zm-200.908-28.667c1.012-21.772 10.441-41.848 26.552-56.528 15.152-13.807 34.508-21.287 54.87-21.287 1.288 0 2.581.03 3.877.09 21.772 1.011 41.848 10.441 56.528 26.552 30.305 33.258 27.902 84.97-5.355 115.275-16.11 14.68-36.974 22.202-58.747 21.197-21.772-1.012-41.848-10.441-56.528-26.552-14.681-16.111-22.209-36.974-21.197-58.747zm-17.068 18.247l.01-.002a99.297 99.297 0 0 0 1.46 7.87c-9.304.741-16.765 1.596-22.292 2.554 5.972-5.015 13.096-8.652 20.822-10.422zm-37.154 34.511c5.563-2.819 11.584-4.865 17.941-6.088 5.7-1.099 14.793-2.105 26.503-2.941 4.308 9.822 10.234 18.982 17.669 27.141 17.919 19.665 42.423 31.174 68.998 32.409 1.583.074 3.157.11 4.731.11 16.182 0 31.835-3.895 45.899-11.248l19.593 21.502H71.771l27.816-60.885zM18 214.508a5.798 5.798 0 0 1 5.791-5.791h16.743a5.798 5.798 0 0 1 5.791 5.791v8.555l-23.229-2.806A5.796 5.796 0 0 1 18 214.508zm45.346 33.601h253.978l35.144 38.568c5.023 5.514 11.93 8.313 18.859 8.313 6.133 0 12.285-2.193 17.164-6.64 10.394-9.471 11.144-25.631 1.674-36.024l-3.844-4.218h20.971l28.633 28.634c5.35 5.35 8.622 12.424 9.364 19.842H25.354c.739-7.414 4.009-14.488 9.358-19.842l28.634-28.633zm53.473 174.722c0 5.051-4.109 9.16-9.16 9.16h-45.04c-5.051 0-9.16-4.109-9.16-9.16v-15.098a56.131 56.131 0 0 0 17.729 2.866h45.631v12.232zm291.198 9.16h-45.028c-5.051 0-9.16-4.109-9.16-9.16v-12.232h45.62c6.091 0 12.058-.98 17.729-2.865v15.098c-.001 5.05-4.111 9.159-9.161 9.159z"/><path d="M231.913 193.6c1.167.055 2.328.082 3.488.082 18.321-.001 35.74-6.732 49.373-19.155 29.927-27.269 32.089-73.801 4.819-103.728-13.209-14.498-31.274-22.982-50.866-23.893-19.604-.922-38.365 5.864-52.861 19.073-29.927 27.269-32.089 73.801-4.819 103.728 13.209 14.498 31.274 22.983 50.866 23.893zM197.989 79.284c10.292-9.378 23.438-14.459 37.27-14.459.875 0 1.754.021 2.634.062 14.789.687 28.425 7.092 38.396 18.035 20.584 22.59 18.952 57.715-3.638 78.3-10.942 9.972-25.116 15.09-39.903 14.397-14.789-.687-28.425-7.092-38.396-18.035-20.584-22.59-18.953-57.715 3.637-78.3z"/><path d="M255.184 142.051a9 9 0 0 0 12.123 13.304c9.377-8.544 14.864-20.228 15.453-32.899.589-12.672-3.793-24.814-12.337-34.19-3.349-3.673-9.041-3.938-12.714-.59a9 9 0 0 0-.591 12.714c5.306 5.822 8.026 13.362 7.661 21.231s-3.773 15.125-9.595 20.43z"/></svg>