<svg xmlns="http://www.w3.org/2000/svg" viewBox="0 0 462.933 462.933"><path d="M291.87 297.992c4.971 0 9-4.029 9-9s-4.029-9-9-9h-8.534v-11.121a9 9 0 0 0-9-9h-52.559a9 9 0 0 0-9 9v2.077h-7.914l-16.805-48.273 35.271-44.856a8.998 8.998 0 0 0 1.49-8.328L172.117 6.235a8.997 8.997 0 0 0-11.33-5.799L28.742 43.063a8.997 8.997 0 0 0-5.8 11.33l52.704 163.255a9 9 0 0 0 6.079 5.885l55.2 15.868 10.988 31.547h-29.068a31.38 31.38 0 0 0-23.394 10.438H65.597c-4.971 0-9 4.029-9 9s4.029 9 9 9h21.125l-49.997 151.73a8.997 8.997 0 0 0 8.548 11.816 94.528 94.528 0 0 0 89.796-64.727l17.9-53.717a19.726 19.726 0 0 1 14.239-12.99c2.185 24.578 12.804 47.398 30.463 65.057l5.44 5.44c1.757 1.757 4.061 2.636 6.364 2.636s4.606-.879 6.364-2.636a9 9 0 0 0 0-12.728l-5.44-5.44c-14.381-14.381-23.131-32.89-25.159-52.853h27.537v2.078a9 9 0 0 0 9 9h52.559a9 9 0 0 0 9-9v-11.121h8.534c4.971 0 9-4.029 9-9s-4.029-9-9-9h-8.534v-5.941h8.534zM157.752 20.33l4.109 12.729L46.946 70.157l-4.109-12.729L157.752 20.33zM91.303 207.557L52.476 87.286l114.915-37.098 38.827 120.271-33.661 42.808-28.827 9.361-52.427-15.071zm64.11 30.203l16.924-5.496 13.466 38.683h-18.832l-11.558-33.187zm-37.421 154.755a76.538 76.538 0 0 1-59.926 51.351l37.199-112.89h44.272a37.907 37.907 0 0 0-3.645 7.822l-17.9 53.717zm-16.796-79.539l4.873-14.787a13.426 13.426 0 0 1 12.775-9.241h93.934v24.028H101.196zm164.14 11.078h-34.559v-46.183h34.559v46.183zm171.146 45.914L334.89 300.962l101.591-69.006a9 9 0 0 0 2.388-12.502c-2.793-4.111-8.391-5.181-12.502-2.388l-112.552 76.451a9 9 0 0 0 0 14.89l112.552 76.451a8.959 8.959 0 0 0 5.049 1.556 9 9 0 0 0 5.066-16.446z"/></svg>