<svg xmlns="http://www.w3.org/2000/svg" viewBox="0 0 470.64 470.64"><path d="M425.666 195.738l24.037-2.903c11.936-1.442 20.938-11.596 20.938-23.619 0-13.118-10.672-23.791-23.791-23.791h-16.744c-10.231 0-18.973 6.492-22.326 15.573l-23.417-51.26c-8.689-19.033-26.052-33.188-46.446-37.863-34.518-7.91-170.674-7.911-205.194 0-20.394 4.676-37.756 18.83-46.444 37.861L62.86 160.995c-3.354-9.079-12.095-15.569-22.325-15.569H23.791C10.672 145.425 0 156.098 0 169.216c0 12.023 9.001 22.177 20.938 23.619l24.036 2.903-22.988 22.989C10.811 229.901 5.465 245.914 7.684 261.56l7.863 55.439c2.021 14.249 9.408 26.675 19.912 35.36v25.179c0 14.976 12.184 27.16 27.16 27.16h45.039c14.976 0 27.16-12.184 27.16-27.16V365.31h201.009v12.229c0 14.976 12.184 27.16 27.16 27.16h45.028c14.976 0 27.16-12.184 27.16-27.16v-25.176c10.506-8.685 17.895-21.113 19.916-35.364l7.863-55.439c2.219-15.647-3.127-31.659-14.301-42.834l-22.987-22.988zM399.447 347.31H71.193c-18.192 0-33.927-13.07-37.458-30.733h403.17c-3.531 17.662-19.266 30.733-37.458 30.733zm-58.095-78.017l9.149 29.284h-12.466l-9.149-29.284h12.466zm-31.324 0l9.149 29.284H151.46l9.149-29.284h149.419zm-177.426 29.284H120.14l9.149-29.284h12.462l-9.149 29.284zm-31.32 0H31.114l-4.154-29.284h83.47l-9.148 29.284zm268.076 0l-9.149-29.284h83.47l-4.154 29.284h-70.167zm54.957-129.361a5.798 5.798 0 0 1 5.791-5.791h16.744a5.798 5.798 0 0 1 5.791 5.791 5.795 5.795 0 0 1-5.096 5.749l-23.229 2.805v-8.554zM136.744 89.419c31.324-7.178 165.829-7.178 197.151 0 7.728 1.772 14.852 5.409 20.825 10.425-42.882-7.43-195.963-7.429-238.802.002 5.973-5.017 13.098-8.655 20.826-10.427zm-37.162 34.513c5.565-2.818 11.589-4.863 17.951-6.086 38.524-7.432 197.046-7.433 235.587.001 6.354 1.221 12.373 3.265 17.936 6.08l27.819 60.89H71.768l27.814-60.885zM18 169.216a5.798 5.798 0 0 1 5.791-5.791h16.744a5.798 5.798 0 0 1 5.791 5.791v8.555l-23.228-2.805a5.798 5.798 0 0 1-5.098-5.75zm45.351 33.601h343.938l28.638 28.638c5.349 5.349 8.619 12.422 9.36 19.838H25.353c.741-7.416 4.011-14.489 9.36-19.838l28.638-28.638zm53.468 174.722c0 5.051-4.109 9.16-9.16 9.16H62.62c-5.051 0-9.16-4.109-9.16-9.16v-15.138a55.53 55.53 0 0 0 17.734 2.909h45.625v12.229zm300.358 0c0 5.051-4.109 9.16-9.16 9.16h-45.028c-5.051 0-9.16-4.109-9.16-9.16V365.31h45.619c6.16 0 12.127-1.022 17.73-2.907v15.136z"/></svg>