<svg xmlns="http://www.w3.org/2000/svg" viewBox="0 0 466.478 466.478"><path d="M343.131 131.994h36.701c10.559 0 19.148-8.59 19.148-19.148V19.148C398.981 8.59 390.391 0 379.833 0h-36.701c-10.558 0-19.147 8.59-19.147 19.148v37.854h-59.002c-3.927-13.836-16.666-24.003-31.743-24.003s-27.816 10.168-31.743 24.003h-59.002V19.148C142.494 8.59 133.904 0 123.345 0H86.644C76.086 0 67.497 8.59 67.497 19.148v93.698c0 10.558 8.59 19.148 19.147 19.148h36.701c10.559 0 19.148-8.59 19.148-19.148V75.002h59.005c3.117 10.968 11.772 19.622 22.741 22.737v149.85c-13.994 5.085-24 21.817-24 42.237 0 20.419 10.006 37.151 24 42.236v36.678c-10.971 3.115-19.627 11.771-22.743 22.743h-59.003v-37.851c0-10.558-8.59-19.148-19.148-19.148H86.644c-10.558 0-19.147 8.59-19.147 19.148v93.698c0 10.558 8.59 19.148 19.147 19.148h36.701c10.559 0 19.148-8.59 19.148-19.148v-37.848h59.004c3.929 13.833 16.666 23.998 31.741 23.998s27.812-10.165 31.741-23.998h59.004v37.848c0 10.558 8.59 19.148 19.147 19.148h36.701c10.559 0 19.148-8.59 19.148-19.148v-93.698c0-10.558-8.59-19.148-19.148-19.148H343.13c-10.558 0-19.147 8.59-19.147 19.148v37.851H264.98c-3.115-10.971-11.771-19.626-22.741-22.742v-36.68c13.993-5.085 23.998-21.817 23.998-42.235 0-20.419-10.005-37.15-23.998-42.236V97.738c10.968-3.115 19.623-11.768 22.739-22.736h59.005v37.844c.001 10.558 8.591 19.148 19.148 19.148zm-218.637-19.148a1.15 1.15 0 0 1-1.148 1.148H86.644a1.148 1.148 0 0 1-1.147-1.148V19.148A1.15 1.15 0 0 1 86.644 18h36.701a1.15 1.15 0 0 1 1.148 1.148v93.698zm0 334.484a1.15 1.15 0 0 1-1.148 1.148H86.644a1.148 1.148 0 0 1-1.147-1.148v-93.698a1.15 1.15 0 0 1 1.147-1.148h36.701a1.15 1.15 0 0 1 1.148 1.148v93.698zm217.49-93.699a1.15 1.15 0 0 1 1.147-1.148h36.701a1.15 1.15 0 0 1 1.148 1.148v93.698a1.15 1.15 0 0 1-1.148 1.148h-36.701a1.148 1.148 0 0 1-1.147-1.148v-93.698zm-93.746 46.849c0 8.271-6.729 14.999-14.999 14.999s-14.999-6.729-14.999-14.999 6.729-14.999 14.999-14.999 14.999 6.729 14.999 14.999zm-14.999-84.819c-7.095 0-14.999-10.611-14.999-25.836 0-15.226 7.904-25.837 14.999-25.837s14.999 10.611 14.999 25.837c0 15.225-7.905 25.836-14.999 25.836zm0-234.665c-8.271 0-14.999-6.729-14.999-14.999s6.729-14.999 14.999-14.999 14.999 6.729 14.999 14.999c0 8.271-6.729 14.999-14.999 14.999zm108.745-61.848A1.15 1.15 0 0 1 343.131 18h36.701a1.15 1.15 0 0 1 1.148 1.148v93.698a1.15 1.15 0 0 1-1.148 1.148h-36.701a1.148 1.148 0 0 1-1.147-1.148V19.148z"/></svg>