<svg xmlns="http://www.w3.org/2000/svg" viewBox="0 0 463.478 463.478"><path d="M463.391 333.138L436.349 139.6a8.998 8.998 0 0 0-7.835-7.689 1644.45 1644.45 0 0 0-393.55 0 8.998 8.998 0 0 0-7.835 7.689L.087 333.138a9.002 9.002 0 0 0 9.862 10.195c147.168-15.601 296.41-15.601 443.58 0a8.996 8.996 0 0 0 7.417-2.693 8.994 8.994 0 0 0 2.445-7.502zm-193.182-160.08v10.499h-76.941v-10.499h76.941zm57.235 142.734l33.08-9.707h43.698c4.971 0 9-4.029 9-9s-4.029-9-9-9H276.729c-4.971 0-9 4.029-9 9s4.029 9 9 9h19.867l-26.895 7.892a2125.78 2125.78 0 0 0-37.963-.343c-32.145 0-64.288.735-96.39 2.191l33.18-9.739h43.704c4.971 0 9-4.029 9-9s-4.029-9-9-9H84.738c-4.971 0-9 4.029-9 9s4.029 9 9 9h19.533l-51.837 15.128c-10.987.93-21.965 1.936-32.932 3.038l24.492-175.285a1623.06 1623.06 0 0 1 71.232-6.692l-10.189 20.906-44.785 14.339a9 9 0 0 0-5.827 11.315 9.003 9.003 0 0 0 8.569 6.258c.909 0 1.834-.139 2.746-.431l28.383-9.087-12.219 25.072A9.002 9.002 0 0 0 88 223.367l18 4.091-18.179 20.093a9 9 0 0 0 .636 12.712 8.966 8.966 0 0 0 6.035 2.326 8.98 8.98 0 0 0 6.677-2.962l28.499-31.499a8.999 8.999 0 0 0-4.679-14.814l-21.93-4.984 32.85-67.404a1627.792 1627.792 0 0 1 86.83-2.796v16.93h-32.866c-8.053 0-14.604 6.552-14.604 14.604v17.29c0 8.053 6.552 14.604 14.604 14.604h83.732c8.053 0 14.604-6.551 14.604-14.604v-17.29c0-8.053-6.552-14.604-14.604-14.604h-32.866v-16.93c59.718.33 119.418 3.938 178.745 10.838l24.491 175.285a2116.5 2116.5 0 0 0-116.531-8.461z"/></svg>