<svg xmlns="http://www.w3.org/2000/svg" viewBox="0 0 424.305 424.305"><path d="M405.542 345.758a9.003 9.003 0 0 0-4.985-3.45l-32.256-8.644a8.979 8.979 0 0 0-2.867-.272L255.701 223.66c-6.346-6.345-6.346-16.67 0-23.015L365.427 90.92c.182.011.364.027.546.027.776 0 1.559-.101 2.328-.307l32.256-8.643a9 9 0 0 0 4.985-3.45l17.077-23.823a9.001 9.001 0 0 0-.95-11.607l-40.48-40.48a9 9 0 0 0-11.607-.951l-23.823 17.077a9.002 9.002 0 0 0-3.45 4.986l-8.643 32.256a8.97 8.97 0 0 0-.272 2.866L223.659 168.604c-3.073 3.074-7.16 4.767-11.507 4.767s-8.434-1.693-11.507-4.767L90.912 58.87a8.973 8.973 0 0 0-.272-2.866l-8.643-32.256a9.002 9.002 0 0 0-3.45-4.986L54.724 1.686a8.998 8.998 0 0 0-11.607.951l-40.48 40.48a9 9 0 0 0-.95 11.607l17.076 23.823a8.995 8.995 0 0 0 4.985 3.45l32.257 8.643a8.96 8.96 0 0 0 2.328.307c.183 0 .364-.016.545-.027l109.725 109.725a16.168 16.168 0 0 1 4.767 11.507c0 4.347-1.692 8.434-4.767 11.508L58.87 333.393a8.97 8.97 0 0 0-2.866.272l-32.257 8.644a8.996 8.996 0 0 0-4.985 3.45L1.686 369.582a9.001 9.001 0 0 0 .95 11.607l40.48 40.48a8.986 8.986 0 0 0 6.367 2.636 8.98 8.98 0 0 0 5.24-1.685l23.823-17.077a9.002 9.002 0 0 0 3.45-4.986l8.643-32.256a8.97 8.97 0 0 0 .272-2.866l109.734-109.734c3.073-3.074 7.16-4.767 11.507-4.767s8.434 1.693 11.507 4.767l109.734 109.734a8.973 8.973 0 0 0 .272 2.866l8.643 32.256a9.002 9.002 0 0 0 3.45 4.986l23.823 17.077a8.971 8.971 0 0 0 5.24 1.685 8.992 8.992 0 0 0 6.367-2.636l40.48-40.48a9 9 0 0 0 .95-11.607l-17.076-23.824zm-49.882 35.084l-3.263-12.179 16.265-16.266 12.18 3.264-25.182 25.181zm0-337.378l25.181 25.181-12.18 3.264-16.265-16.265 3.264-12.18zm18.201-22.699l29.68 29.68-6.448 8.995-32.227-32.227 8.995-6.448zM71.908 55.644L55.644 71.909l-12.18-3.264 25.181-25.181 3.263 12.18zM50.445 20.765l8.995 6.448L27.212 59.44l-6.448-8.995 29.681-29.68zm18.2 360.076L43.464 355.66l12.18-3.264 16.265 16.266-3.264 12.179zm-18.2 22.7l-29.681-29.68 6.448-8.995 32.228 32.227-8.995 6.448zm161.708-170.606c-9.155 0-17.763 3.565-24.235 10.039l-108.12 108.12-6.586-6.586 108.12-108.12c6.474-6.473 10.038-15.08 10.038-24.235s-3.564-17.762-10.038-24.235L73.211 79.797l6.586-6.586 108.12 108.12c6.473 6.474 15.08 10.039 24.235 10.039 9.154 0 17.762-3.565 24.235-10.039l108.12-108.12 6.585 6.585-108.119 108.121c-13.363 13.363-13.363 35.107 0 48.47l108.121 108.121-6.585 6.586-108.12-108.12c-6.475-6.473-15.082-10.039-24.236-10.039zm161.708 170.606l-8.996-6.448 32.227-32.227 6.448 8.995-29.679 29.68z"/></svg>