<svg xmlns="http://www.w3.org/2000/svg" viewBox="0 0 440 440"><path d="M263 355.713c20.52 0 37.213-16.694 37.213-37.213S283.52 281.287 263 281.287s-37.213 16.694-37.213 37.213S242.48 355.713 263 355.713zm0-56.426c10.594 0 19.213 8.619 19.213 19.213s-8.619 19.213-19.213 19.213-19.213-8.619-19.213-19.213 8.619-19.213 19.213-19.213z"/><path d="M440 210.5a9 9 0 0 0-9-9h-91.701v-27.088l25.092-19.09a28.648 28.648 0 0 1 17.249-5.822H431c4.971 0 9-4.029 9-9s-4.029-9-9-9h-49.36c-10.105 0-20.104 3.374-28.149 9.498l-80.207 61.021-1.5.266-31.404-74.731c-8.793-20.926-24.666-38.333-44.694-49.014a8.998 8.998 0 0 0-12.177 3.707 9 9 0 0 0 3.706 12.176c16.389 8.74 29.376 22.982 36.571 40.104l29.828 70.982-86.222 15.299c-12.59 2.227-23.801 9.666-30.762 20.417l-5.426 8.394a57.213 57.213 0 0 0-9.205 31.162c0 8.139 1.69 16.043 5.031 23.51a57.113 57.113 0 0 0 14.223 19.37l7.316 6.497a52.768 52.768 0 0 0 35.09 13.343h21.525c9.695 22.334 31.956 38 57.814 38s48.119-15.666 57.814-38H431c4.971 0 9-4.029 9-9s-4.029-9-9-9H325.602c.255-2.3.398-4.633.398-7 0-3.022-.227-5.99-.64-8.9H431c4.971 0 9-4.029 9-9s-4.029-9-9-9H319.954c-10.11-21.318-31.835-36.1-56.954-36.1s-46.844 14.782-56.954 36.1h-64.524a39.101 39.101 0 0 1-1.477-9.1h25.43c11.317 0 20.525-9.208 20.525-20.525s-9.208-20.525-20.525-20.525h-3.336a28.121 28.121 0 0 1 8.394-2.918l107.26-19.033H431a9 9 0 0 0 9-9zm-177 63c24.813 0 45 20.187 45 45s-20.187 45-45 45-45-20.187-45-45 20.187-45 45-45zm-62.602 52H183.66a34.785 34.785 0 0 1-23.135-8.8l-7.313-6.494c-.222-.197-.43-.405-.647-.606h48.075a63.26 63.26 0 0 0-.64 8.9c0 2.367.143 4.7.398 7zM168 261.975a2.528 2.528 0 0 1-2.525 2.525h-21.946a39.545 39.545 0 0 1 2.757-5.05h19.189a2.528 2.528 0 0 1 2.525 2.525zM321.299 201.5h-17.605l17.605-13.394V201.5z"/><path d="M404 235.5c-4.971 0-9 4.029-9 9s4.029 9 9 9h24c4.971 0 9-4.029 9-9s-4.029-9-9-9h-24zm-263.003-27.07c5.688 3.293 12.201 5.07 19.003 5.07 20.953 0 38-17.047 38-38 0-14.282-7.988-27.027-20.062-33.502a54.995 54.995 0 0 0 3.41-19.079c0-30.327-24.673-55-55-55s-55 24.673-55 55l.001.302c-25.441 7.164-43.726 30.64-43.726 57.748 0 33.084 26.916 60 60 60a59.89 59.89 0 0 0 53.374-32.539zm-53.373 14.538c-23.159 0-42-18.841-42-42 0-19.3 13.234-35.968 31.513-40.666 1.626-.418 8.712-1.334 10.487-1.334 12.578 0 24.39 5.57 32.407 15.281a8.98 8.98 0 0 0 6.945 3.271 8.961 8.961 0 0 0 5.725-2.06 9 9 0 0 0 1.211-12.67c-11.07-13.41-27.215-21.267-44.515-21.773.993-19.522 17.187-35.098 36.952-35.098 20.401 0 37 16.598 37 37a36.903 36.903 0 0 1-5.486 19.388 8.995 8.995 0 0 0-.58 8.343 8.996 8.996 0 0 0 6.536 5.218C173.194 157.677 180 165.934 180 175.5c0 11.028-8.972 20-20 20-6.206 0-11.959-2.817-15.785-7.73a8.999 8.999 0 1 0-15.835 3.36c-4.657 18.746-21.416 31.838-40.756 31.838zM59 88c0-16.267-13.233-29.5-29.5-29.5S0 71.733 0 88s13.233 29.5 29.5 29.5S59 104.267 59 88zm-41 0c0-6.341 5.159-11.5 11.5-11.5S41 81.659 41 88s-5.159 11.5-11.5 11.5S18 94.341 18 88z"/></svg>