<svg xmlns="http://www.w3.org/2000/svg" viewBox="0 0 445.989 445.989"><path d="M445.989 58.753a9 9 0 0 0-9-9h-5.999V25.754c0-4.971-4.029-9-9-9s-9 4.029-9 9v23.999h-17.998V25.754c0-4.971-4.029-9-9-9s-9 4.029-9 9v23.999h-6a9 9 0 0 0-9 9c0 4.458 3.245 8.149 7.5 8.865v27.133c0 15.362 10.096 28.407 23.999 32.86v249.697c0 18.707-15.22 33.927-33.927 33.927H235.91c-18.707 0-33.927-15.22-33.927-33.927v-15.57h71.022v8.258c0 13.103 10.66 23.763 23.764 23.763h36.604c13.104 0 23.764-10.66 23.764-23.763v-19.68c8.53-7.293 14.509-17.564 16.174-29.298l6.392-45.067c1.878-13.242-2.646-26.792-12.103-36.248l-16.241-16.241 16.104-1.945c10.549-1.274 18.503-10.248 18.503-20.873 0-11.593-9.432-21.024-21.024-21.024h-13.611c-7.71 0-14.446 4.185-18.104 10.39l-17.55-38.417c-7.279-15.947-21.826-27.805-38.913-31.722-28.188-6.46-139.373-6.46-167.561 0-17.086 3.917-31.633 15.775-38.912 31.719l-17.552 38.417c-3.66-6.204-10.394-10.387-18.104-10.387H21.024C9.431 179.619 0 189.051 0 200.643c0 10.625 7.955 19.598 18.503 20.873l16.104 1.945-16.241 16.241c-9.457 9.457-13.981 23.007-12.103 36.248l6.392 45.068c1.664 11.733 7.641 22.002 16.17 29.296v19.683c0 13.103 10.66 23.763 23.763 23.763h36.614c13.103 0 23.763-10.66 23.763-23.763v-8.258h71.017v15.57c0 28.632 23.294 51.927 51.927 51.927h123.654c28.633 0 51.927-23.294 51.927-51.927v-248.89c15.427-3.435 26.998-17.221 26.998-33.668V67.618c4.256-.716 7.501-4.407 7.501-8.865zM31.237 322.121H354.73c-3.454 12.548-15.036 21.617-28.323 21.617H59.559c-13.287 0-24.868-9.068-28.322-21.617zm271.948-18l-6.385-20.438h63.625l-2.899 20.438h-54.341zm-25.243-20.438l6.385 20.438h-6.606l-6.385-20.438h6.606zm-25.465 0l6.385 20.438H127.1l6.385-20.438h118.992zm-144.235 20.438h-6.604l6.385-20.438h6.604l-6.385 20.438zm-25.461 0H28.439l-2.899-20.438h63.626l-6.385 20.438zm256.356 65.875a5.77 5.77 0 0 1-5.764 5.763h-36.604a5.77 5.77 0 0 1-5.764-5.763v-8.258h35.401c4.388 0 8.661-.614 12.73-1.763v10.021zm9.17-169.353a3.027 3.027 0 0 1 3.023-3.024h13.611a3.027 3.027 0 0 1 3.024 3.024 3.027 3.027 0 0 1-2.661 3.002l-16.998 2.053v-5.055zm-235.083-63.228c25.345-5.808 134.173-5.808 159.518 0a38.441 38.441 0 0 1 10.604 4.181c-39.614-4.727-141.132-4.726-180.725 0a38.423 38.423 0 0 1 10.603-4.181zm-29.307 27.666c4.24-2.087 8.809-3.618 13.632-4.545 31.213-6.021 159.651-6.022 190.88.001a53.737 53.737 0 0 1 13.618 4.541l21.276 46.565H62.647l21.27-46.562zM18 200.643a3.027 3.027 0 0 1 3.024-3.024h13.611a3.027 3.027 0 0 1 3.024 3.024v5.055l-16.998-2.053A3.025 3.025 0 0 1 18 200.643zm35.881 29h278.204l22.787 22.787c3.624 3.625 5.988 8.29 6.863 13.253H24.23c.875-4.963 3.239-9.628 6.864-13.253l22.787-22.787zm41.085 140.353a5.77 5.77 0 0 1-5.763 5.763H52.589a5.77 5.77 0 0 1-5.763-5.763v-10.021a46.82 46.82 0 0 0 12.733 1.763h35.407v8.258zM420.489 94.751c0 9.098-7.401 16.499-16.498 16.499-9.098 0-16.499-7.401-16.499-16.499V67.753h32.997v26.998z"/></svg>