<svg xmlns="http://www.w3.org/2000/svg" viewBox="0 0 458.726 458.726"><path d="M377.135 129.954l-54.238-54.238 33.665-33.664a9 9 0 0 0 0-12.728L329.874 2.636a9 9 0 0 0-12.728 0L283.482 36.3 271.5 24.318a9 9 0 0 0-12.728 0c-3.431 3.431-3.503 8.937-.236 12.467L108.894 186.428c-3.53-3.268-9.036-3.196-12.467.235a9 9 0 0 0 0 12.728l33.109 33.109-19.158 19.158c-9.391 9.391-14.563 21.876-14.563 35.157 0 13.281 5.171 25.767 14.563 35.158l32.426 32.426a.72.72 0 0 1 .223.533c0 .305-.162.467-.215.521l-61.22 61.22a9 9 0 0 0 0 12.728l26.688 26.688c1.757 1.757 4.061 2.636 6.364 2.636s4.606-.879 6.364-2.636l66.009-66.009c9.391-9.391 14.562-21.875 14.559-35.155-.002-13.278-5.175-25.762-14.566-35.152l-32.426-32.426a.744.744 0 0 1 0-1.062l14.369-14.369 33.111 33.111a8.967 8.967 0 0 0 6.364 2.636 8.973 8.973 0 0 0 6.364-2.636c3.431-3.431 3.503-8.937.236-12.467l149.643-149.644a8.965 8.965 0 0 0 6.103 2.401 9 9 0 0 0 6.361-15.363zM323.51 21.728l13.96 13.96-27.3 27.3-13.961-13.96 27.301-27.3zm-181.655 251.83c-7.311 7.311-7.311 19.206 0 26.517l32.426 32.426c12.368 12.368 12.371 32.489.007 44.853l-59.646 59.645-13.96-13.96 54.855-54.856c7.307-7.307 7.304-19.199-.007-26.509l-32.426-32.426c-5.991-5.991-9.29-13.957-9.29-22.43 0-8.473 3.299-16.438 9.29-22.43l19.158-19.158 13.961 13.961-14.368 14.367zm60.455 6.262l-80.676-80.676L271.252 49.526l80.676 80.677L202.31 279.82z"/></svg>