<svg xmlns="http://www.w3.org/2000/svg" viewBox="0 0 430 430"><path d="M368.251 0H61.749a9 9 0 0 0-9 9v37.608a9 9 0 0 0 9 9h14.452v171.377a9 9 0 0 0 3.547 7.16l107.739 82.054V421a9 9 0 0 0 9 9h36.601a9 9 0 0 0 9-9V316.525l108.168-82.38a9.002 9.002 0 0 0 3.547-7.16V55.608h14.449a9 9 0 0 0 9-9V9a9 9 0 0 0-9.001-9zM224.087 412h-18.601v-91.258h18.601V412zm111.715-189.474l-105.326 80.216h-30.949L94.201 222.526V55.608h241.602v166.918zm23.449-184.918H70.749V18h288.503v19.608z"/><path d="M311.931 207.214a9 9 0 0 0 9-9V74.174c0-4.971-4.029-9-9-9s-9 4.029-9 9v124.04a9 9 0 0 0 9 9z"/></svg>