<svg xmlns="http://www.w3.org/2000/svg" viewBox="0 0 359.959 359.959"><path d="M345.529 266.109h-10.252V130.712a9 9 0 0 0-9-9h-18.549V39.219a9 9 0 0 0-2.636-6.364L274.873 2.636A9 9 0 0 0 268.509 0h-57.18a9 9 0 0 0-9 9v112.712h-44.697V9a9 9 0 0 0-9-9H91.453a9 9 0 0 0-6.364 2.636L54.87 32.854a9 9 0 0 0-2.636 6.364v82.493H33.683a9 9 0 0 0-9 9v135.397H14.431a9 9 0 0 0-9 9v75.851a9 9 0 0 0 9 9h331.098a9 9 0 0 0 9-9v-75.851a9 9 0 0 0-9-8.999zM220.329 18h44.452l24.947 24.947v78.765H220.33V18zM70.233 42.947L95.181 18h44.451v103.712H70.233V42.947zm-27.55 96.765h274.594v126.397H42.683V139.712zm293.846 202.247H23.431v-57.851h313.098v57.851z"/><path d="M61.233 145.636a9 9 0 0 0-9 9v94.044c0 4.971 4.029 9 9 9s9-4.029 9-9v-94.044a9 9 0 0 0-9-9zm150.096 0a9 9 0 0 0-9 9v66.983h-17.488c-1.416 0-2.069-.86-2.368-1.582-.299-.722-.445-1.792.556-2.793a20.502 20.502 0 0 0 4.458-22.409 20.503 20.503 0 0 0-18.998-12.694h-10.856v-27.505c0-4.971-4.029-9-9-9s-9 4.029-9 9v94.044c0 4.971 4.029 9 9 9s9-4.029 9-9v-48.539h10.856c1.416 0 2.069.86 2.368 1.582.299.722.445 1.792-.555 2.793a20.502 20.502 0 0 0-4.458 22.409 20.503 20.503 0 0 0 18.998 12.694h17.488v9.061c0 4.971 4.029 9 9 9s9-4.029 9-9v-94.044a9 9 0 0 0-9.001-9zm87.399 0a9 9 0 0 0-9 9v94.044c0 4.971 4.029 9 9 9s9-4.029 9-9v-94.044a9 9 0 0 0-9-9zm-183.821 28.498H94.958c-4.971 0-9 4.029-9 9s4.029 9 9 9h19.949c4.971 0 9-4.029 9-9s-4.029-9-9-9zm150.095 0h-19.948c-4.971 0-9 4.029-9 9s4.029 9 9 9h19.948c4.971 0 9-4.029 9-9s-4.029-9-9-9z"/></svg>