<svg xmlns="http://www.w3.org/2000/svg" viewBox="0 0 446 446"><path d="M415.983 211.561c0-11.593-9.431-21.024-21.024-21.024h-13.611c-7.71 0-14.446 4.185-18.105 10.39l-17.549-38.417c-7.28-15.946-21.827-27.805-38.914-31.722-28.188-6.459-139.373-6.459-167.561 0-17.086 3.917-31.633 15.776-38.911 31.719l-17.552 38.417c-3.659-6.204-10.394-10.387-18.104-10.387H51.041c-11.593 0-21.024 9.431-21.024 21.024 0 10.625 7.955 19.598 18.503 20.872l16.105 1.945-16.241 16.241c-9.457 9.457-13.981 23.007-12.103 36.248l6.392 45.068c1.664 11.733 7.641 22.002 16.17 29.296v19.683c0 13.103 10.66 23.763 23.763 23.763h36.614c13.103 0 23.763-10.66 23.763-23.763v-8.258h160.04v8.258c0 13.103 10.66 23.763 23.763 23.763h36.605c13.103 0 23.763-10.66 23.763-23.763v-19.68c8.53-7.294 14.509-17.564 16.174-29.298l6.392-45.068c1.878-13.241-2.646-26.791-12.103-36.248l-16.241-16.241 16.104-1.945c10.548-1.275 18.503-10.248 18.503-20.873zM143.24 148.333c25.344-5.808 134.175-5.808 159.518 0a38.412 38.412 0 0 1 10.604 4.182c-39.615-4.727-141.132-4.726-180.726 0a38.394 38.394 0 0 1 10.604-4.182zm-29.307 27.666c4.241-2.088 8.81-3.619 13.633-4.545 31.213-6.022 159.651-6.022 190.88.001 4.815.925 9.381 2.455 13.619 4.541l21.274 46.565H92.663l21.27-46.562zm-65.916 35.562a3.027 3.027 0 0 1 3.024-3.024h13.611a3.027 3.027 0 0 1 3.024 3.024v5.055l-16.998-2.053a3.027 3.027 0 0 1-2.661-3.002zm308.407 143.094H89.576c-13.287 0-24.868-9.068-28.322-21.616h323.493c-3.456 12.548-15.037 21.616-28.323 21.616zm-23.223-39.616l-6.385-20.438h63.627l-2.899 20.438h-54.343zM307.959 294.6l6.385 20.438h-6.607l-6.385-20.438h6.607zm-25.465 0l6.385 20.438H157.117l6.385-20.438h118.992zm-144.235 20.439h-6.604l6.385-20.438h6.604l-6.385 20.438zm-25.461 0H58.456L55.557 294.6h63.626l-6.385 20.439zm12.185 65.874a5.77 5.77 0 0 1-5.763 5.763H82.606a5.77 5.77 0 0 1-5.763-5.763v-10.021a46.82 46.82 0 0 0 12.733 1.763h35.407v8.258zm244.17 0a5.77 5.77 0 0 1-5.763 5.763h-36.605a5.77 5.77 0 0 1-5.763-5.763v-8.258h35.401c4.388 0 8.661-.614 12.729-1.763v10.021zm22.6-104.313H54.247c.875-4.963 3.239-9.628 6.864-13.253l22.788-22.787h278.204l22.787 22.787c3.623 3.625 5.987 8.29 6.863 13.253zm3.569-62.037l-16.998 2.053v-5.055a3.027 3.027 0 0 1 3.024-3.024h13.611a3.027 3.027 0 0 1 3.024 3.024 3.027 3.027 0 0 1-2.661 3.002z"/><path d="M439.378 71.961l-214-58.641a8.993 8.993 0 0 0-4.757 0l-214 58.641A9 9 0 0 0 0 80.641V424a9 9 0 0 0 9 9h428a9 9 0 0 0 9-9V80.641a8.999 8.999 0 0 0-6.622-8.68zM223 31.332l205 56.174v16.802L225.378 48.785a8.993 8.993 0 0 0-4.757 0L18 104.308V87.506l205-56.174zM18 415V122.971l205-56.174 205 56.174V415H18z"/></svg>