<svg xmlns="http://www.w3.org/2000/svg" viewBox="0 0 445.944 445.944"><path d="M445.898 85.856l-3.711-37.085a8.998 8.998 0 0 0-9.851-8.059l-62.355 6.241c-28.195 2.822-54.757 15.41-74.793 35.447l-47.907 47.908-.816-.816a9 9 0 0 0-9.902-1.912l-125.406 53.612a9 9 0 0 0-2.826 1.912l-51.692 51.691a9 9 0 0 0 7.307 15.314l3.609-.38-64.919 64.917a9 9 0 0 0 0 12.728l66.044 66.044a9 9 0 0 0 12.728 0l60.972-60.972 33.225 33.225-24.244 24.244a9 9 0 0 0 0 12.728 8.967 8.967 0 0 0 6.364 2.636 8.973 8.973 0 0 0 6.364-2.636l80.803-80.803c26.501-26.501 42.404-61.369 45.088-98.624.108-1.505 2.433-43.532 2.433-43.532a8.995 8.995 0 0 0-2.622-6.864l-3.431-3.431 49.955-49.955a59.888 59.888 0 0 1 36.286-17.197l65.237-6.529a9 9 0 0 0 8.06-9.852zM119.829 197.059l118.211-50.536 36.178 36.178-1.522 27.335-185.354 19.51 32.487-32.487zM75.044 374.326L21.728 321.01l74.275-74.275 119.178-12.545L75.044 374.326zm157.121-65.215l-43.832 43.832-33.225-33.225 88.523-88.523 27.785-2.925c-3.623 30.534-17.336 58.925-39.251 80.841zm60.283-198.518l7.034 20.218-9.513 9.513-7.034-20.218 9.513-9.513zm-23.652 23.653l7.034 20.218-2.196 2.196-13.626-13.626 8.788-8.788zM370.81 84.325c-17.801 1.781-34.571 9.729-47.222 22.38l-9.967 9.967-7.035-20.219 1.328-1.328c17.107-17.106 39.786-27.854 63.858-30.264l53.4-5.344 1.919 19.175-56.281 5.633z"/></svg>