<svg xmlns="http://www.w3.org/2000/svg" viewBox="0 0 441.861 441.861"><path d="M175.683 94.93h-56.969C53.255 94.93 0 148.185 0 213.644s53.255 118.713 118.714 118.713h56.969a9 9 0 0 0 8.671-6.59 418.75 418.75 0 0 0 0-224.248 9 9 0 0 0-8.671-6.589zM18 213.644C18 158.11 63.18 112.93 118.714 112.93h12.135a400.531 400.531 0 0 1 .002 201.427h-12.136C63.18 314.357 18 269.177 18 213.644zm150.783 100.713h-19.376a418.535 418.535 0 0 0 12.312-100.715c0-33.959-4.147-67.779-12.313-100.712h19.377a400.77 400.77 0 0 1 0 201.427zm50.879-170.933l211.312 45.265a9.038 9.038 0 0 0 1.894.202 9.001 9.001 0 0 0 1.876-17.803l-211.312-45.265c-4.854-1.042-9.644 2.055-10.685 6.915a9 9 0 0 0 6.915 10.686zm215.081 80.345l-211.312-45.265a9 9 0 0 0-3.77 17.601l211.312 45.265a9.038 9.038 0 0 0 1.894.202 9 9 0 0 0 1.876-17.803zm0 52.679l-211.312-45.265a9 9 0 0 0-3.77 17.601l211.312 45.265a9.038 9.038 0 0 0 1.894.202 9 9 0 0 0 1.876-17.803zm0 52.681l-211.312-45.265a9 9 0 0 0-3.77 17.601l211.312 45.265a9.038 9.038 0 0 0 1.894.202 9 9 0 0 0 1.876-17.803z"/></svg>