<svg xmlns="http://www.w3.org/2000/svg" viewBox="0 0 441.563 441.563"><path d="M333.764 139.87a9.001 9.001 0 0 0-14.289-10.946l-42.693 55.735h-73.67l-42.693-55.735c-3.021-3.946-8.671-4.694-12.617-1.672-3.946 3.022-4.694 8.672-1.672 12.618l43.539 56.84v101.68l-43.539 56.84a9.001 9.001 0 0 0 14.289 10.946l42.694-55.736h73.668l42.694 55.736a8.984 8.984 0 0 0 7.151 3.528 8.96 8.96 0 0 0 5.466-1.856c3.946-3.022 4.694-8.672 1.672-12.618l-43.54-56.841V196.711l43.54-56.841zm-61.54 152.569H207.67v-89.78h64.555v89.78z"/><path d="M354.891 0H202.215c-22.359 0-40.551 18.191-40.551 40.55v12.986h-13.17c-3.343 0-6.618.292-9.812.827l-20.716-20.717 5.567-5.567a9 9 0 0 0 0-12.728 9.002 9.002 0 0 0-12.729 0L82.172 43.984 65.47 60.686l-.001.001-11.93 11.93a9 9 0 0 0 0 12.728 8.97 8.97 0 0 0 6.364 2.636 8.975 8.975 0 0 0 6.364-2.636l5.566-5.566L90.907 98.85a59.158 59.158 0 0 0-1.673 13.946v269.506c0 32.676 26.584 59.26 59.261 59.26h182.903c32.677 0 59.261-26.584 59.261-59.26V35.768C390.659 16.045 374.614 0 354.891 0zM179.665 40.55c0-12.434 10.116-22.55 22.551-22.55h77.479a74.227 74.227 0 0 0-11.571 12.436c-10.636 14.464-27.703 23.099-45.656 23.099h-42.803V40.55zm-95.102 26.5l20.676-20.676 14.583 14.583a59.689 59.689 0 0 0-21.301 20.05L84.563 67.05zm288.096 315.252c0 22.751-18.51 41.26-41.261 41.26H148.495c-22.751 0-41.261-18.51-41.261-41.26V112.796c0-22.751 18.51-41.26 41.261-41.26h73.973c23.655 0 46.145-11.378 60.158-30.437C293.261 26.635 310.329 18 328.282 18h26.609c9.797 0 17.768 7.971 17.768 17.768v346.534z"/></svg>