<svg xmlns="http://www.w3.org/2000/svg" viewBox="0 0 417.225 417.225"><path d="M384.891 32.361C364.023 11.493 336.277 0 306.764 0c-29.512 0-57.258 11.493-78.127 32.361l-42.271 42.272c-24.621 24.62-24.621 64.681 0 89.301l.535.535-27.794 27.794a9.03 9.03 0 0 0-1.203 1.491l-14.565 22.618-22.618 14.565a8.989 8.989 0 0 0-2.694 2.694l-14.565 22.618-22.617 14.565a9 9 0 0 0-2.694 2.694l-14.565 22.618-22.617 14.565a9 9 0 0 0-2.694 2.694l-14.469 22.47L4.437 347.33a9.001 9.001 0 0 0-4.405 8.104l2.055 51.098a8.998 8.998 0 0 0 8.631 8.631l51.098 2.054a9 9 0 0 0 6.725-2.629l184.24-184.239.537.537c12.311 12.31 28.48 18.465 44.65 18.465 16.171 0 32.341-6.155 44.651-18.465l42.272-42.272c43.079-43.079 43.079-113.174 0-156.253zM34.808 350.257a9.012 9.012 0 0 0 2.979-2.87l14.564-22.618 22.618-14.565a9 9 0 0 0 2.694-2.694l14.565-22.618 22.617-14.565a9 9 0 0 0 2.694-2.694l14.565-22.618 22.617-14.565a8.989 8.989 0 0 0 2.694-2.694l15.099-23.446 27.113-27.113 21.16 21.16L21.56 397.585l-1.822-.073-1.505-37.434 16.575-9.821zm23.793 48.817l-12.569-.505 187.484-187.483 6.536 6.536L58.601 399.074zm313.562-223.187l-42.272 42.272c-17.601 17.601-46.242 17.603-63.845 0l-66.953-66.953c-8.526-8.527-13.223-19.864-13.223-31.922 0-12.059 4.696-23.396 13.223-31.923l42.272-42.272C258.834 27.62 282.06 18 306.764 18c24.705 0 47.931 9.62 65.398 27.089l6.365-6.364-6.364 6.364c36.061 36.061 36.061 94.737 0 130.798z"/><path d="M355.155 63.573C335.927 43.75 305.9 37.669 280.436 48.441a9.002 9.002 0 0 0-2.904 14.605l76.065 77.202a8.998 8.998 0 0 0 14.668-2.737c10.997-25.368 5.851-54.39-13.11-73.938zm.401 53.015l-54.333-55.144c14.956-1.627 30.279 3.596 41.013 14.661 10.536 10.864 15.223 25.767 13.32 40.483z"/></svg>