<svg xmlns="http://www.w3.org/2000/svg" viewBox="0 0 441.675 441.675"><path d="M394.439 193.801c-5.606-18.627-16.804-34.626-32.381-46.267-15.496-11.581-35.057-17.959-55.081-17.959h-116.16c-55.385 0-100.445 45.06-100.445 100.445v38.614c0 23.967 19.499 43.465 43.465 43.465h195.807c23.48 0 45.789-10.861 59.676-29.053 14.575-19.096 18.968-43.229 12.051-66.211l-6.932-23.034zm-19.426 78.324c-10.503 13.76-27.463 21.975-45.368 21.975h-76.1l50.284-79.547a9 9 0 0 0-15.215-9.619L232.25 294.1h-24.914l8.969-14.189a9 9 0 0 0-15.215-9.619L186.042 294.1h-52.204c-14.042 0-25.465-11.424-25.465-25.465v-38.614c0-45.46 36.985-82.445 82.445-82.445h87.846l-59.31 93.827a9 9 0 0 0 15.215 9.619l65.39-103.445h7.019c5.671 0 11.285.642 16.725 1.858L306.402 176.8a9.001 9.001 0 0 0 15.215 9.619l19.459-30.782a69.655 69.655 0 0 1 10.206 6.316c12.469 9.318 21.433 22.125 25.92 37.036l6.932 23.034c5.235 17.389 1.909 35.65-9.121 50.102z"/><path d="M436.875 206.15l-6.933-23.034c-7.944-26.394-23.836-49.037-45.958-65.481S335.601 92.5 308.037 92.5h-117.22c-75.83 0-137.521 61.692-137.521 137.521v22.369H9a9 9 0 0 0-9 9v78.786a9 9 0 0 0 9 9h321.559c35.468 0 67.946-16.326 89.106-44.791 21.159-28.466 27.432-64.271 17.21-98.235zm-31.657 87.496c-17.729 23.85-44.941 37.529-74.66 37.529H18v-60.786h44.296a9 9 0 0 0 9-9V230.02c0-65.904 53.617-119.521 119.521-119.521h117.22c23.667 0 46.215 7.463 65.209 21.582s32.639 33.561 39.459 56.223l6.933 23.034c8.566 28.457 3.309 58.457-14.42 82.308z"/></svg>