<svg xmlns="http://www.w3.org/2000/svg" viewBox="0 0 469.861 469.861"><path d="M393.715 213.517h28.358a9 9 0 0 0 9-9v-33.56a9 9 0 0 0-9-9H300.912v-7.782c0-18.84-15.328-34.168-34.167-34.168h-47.949v-11.365h11.241a9 9 0 0 0 9-9V72.375a9 9 0 0 0-9-9h-62.925a9 9 0 0 0-9 9v27.267a9 9 0 0 0 9 9h11.241v11.365h-47.949c-14.092 0-26.217 8.577-31.434 20.783-9.945-5.41-20.908-8.251-31.981-8.251-17.388 0-34.002 6.948-46.786 19.566-22.664 22.386-26.662 55.647-9.947 82.767l85.98 139.452v23.163a9 9 0 0 0 9 9h186.677a9 9 0 0 0 9-9v-22.879l92.802-161.091zm19.358-33.56v15.56h-24.56a9 9 0 0 0-7.798 4.507l-79.802 138.525V179.957h112.16zM176.112 81.375h44.925v9.267h-44.925v-9.267zm20.24 27.267h4.443v11.365h-4.443v-11.365zM96.235 280.075l-43.874-71.17c-6.589-10.68-.38-18.664 2.601-21.605 3.439-3.4 7.861-5.35 12.13-5.35 3.131 0 6.333 1.021 9.504 3.025l19.639 12.461v82.639zm-70.657-54.649c-12.221-19.828-9.298-44.147 7.271-60.513 9.391-9.269 21.515-14.374 34.139-14.374 9.2 0 18.346 2.72 26.451 7.87l2.796 1.775v15.934l-10.008-6.35c-6.107-3.861-12.545-5.818-19.135-5.818-8.969 0-18.002 3.845-24.78 10.544-9.27 9.149-16.213 26.127-5.272 43.86l59.195 96.023v25.649l-70.657-114.6zm257.334 163.061H114.235V154.175c0-8.915 7.253-16.168 16.168-16.168h136.342c8.915 0 16.167 7.253 16.167 16.168v234.312zm175.027-132.238l-22.418-22.418a9 9 0 0 0-12.728 0l-22.418 22.418c-7.688 7.688-11.922 17.91-11.922 28.782s4.234 21.094 11.922 28.782c7.935 7.935 18.358 11.903 28.782 11.903s20.847-3.968 28.782-11.903c7.688-7.688 11.922-17.91 11.922-28.782s-4.234-21.094-11.922-28.782zm-12.728 44.836c-8.853 8.852-23.256 8.852-32.109 0-4.288-4.288-6.65-9.99-6.65-16.054s2.362-11.766 6.65-16.054l16.055-16.054 16.054 16.054c4.288 4.288 6.65 9.99 6.65 16.054s-2.362 11.766-6.65 16.054z"/></svg>