<svg xmlns="http://www.w3.org/2000/svg" viewBox="0 0 476.977 476.977"><path d="M208.872 420.405c0 16.331 13.286 29.616 29.616 29.616s29.616-13.286 29.616-29.616-13.286-29.616-29.616-29.616-29.616 13.285-29.616 29.616zm41.232 0c0 6.405-5.211 11.616-11.616 11.616-6.405 0-11.616-5.211-11.616-11.616s5.211-11.616 11.616-11.616c6.405 0 11.616 5.211 11.616 11.616zM238.489 93.7c-14.847 0-26.926 12.079-26.926 26.926s12.079 26.926 26.926 26.926 26.925-12.079 26.925-26.926S253.335 93.7 238.489 93.7zm0 35.852c-4.922 0-8.926-4.004-8.926-8.926s4.004-8.926 8.926-8.926c4.921 0 8.925 4.004 8.925 8.926s-4.004 8.926-8.925 8.926z"/><path d="M323.671 0H153.306a9 9 0 0 0-9 9v185.749a9 9 0 0 0 9 9h38.187a9 9 0 0 0 9-9c0-10.304 6.216-19.179 15.092-23.086l-5.063 185.778c-.267 9.281-7.749 16.551-17.034 16.551a9 9 0 0 0-9 9v39.984c0 29.776 24.225 54 54.001 54 29.776 0 54-24.225 54-54v-39.984a9 9 0 0 0-9-9c-9.285 0-16.767-7.27-17.034-16.551l-5.063-185.778c8.876 3.907 15.092 12.782 15.092 23.086a9 9 0 0 0 9 9h38.187a9 9 0 0 0 9-9V9a9 9 0 0 0-9-9zm-9 18v9.529H162.306V18h152.365zm0 27.529v11.058H162.306V45.529h152.365zm-40.182 345.317v32.13c0 19.851-16.15 36-36.001 36s-36-16.15-36-36v-32.131c14.717-3.841 25.566-16.918 26.026-32.9l5.135-188.41h9.679l5.135 188.41v.014c.459 15.97 11.309 29.046 26.026 32.887zm19.053-205.097c-4.151-19.524-21.528-34.214-42.271-34.214h-25.564c-20.744 0-38.12 14.689-42.271 34.214h-21.129V74.587h152.366v111.162h-21.131z"/></svg>