<svg xmlns="http://www.w3.org/2000/svg" viewBox="0 0 426 426"><path d="M417 12.554a9 9 0 0 0-9 9v22.385H18V21.554c0-4.971-4.029-9-9-9s-9 4.029-9 9v382.893c0 4.971 4.029 9 9 9s9-4.029 9-9v-22.385h390v22.385c0 4.971 4.029 9 9 9s9-4.029 9-9V21.554a9 9 0 0 0-9-9zM18 318.036h108.3c4.971 0 9-4.029 9-9s-4.029-9-9-9H18v-14.01h97.152c4.971 0 9-4.029 9-9s-4.029-9-9-9H18v-14.01h123.099c4.971 0 9-4.029 9-9s-4.029-9-9-9H18v-14.02h64.95c4.971 0 9-4.029 9-9s-4.029-9-9-9H18v-14.01h68.98c4.971 0 9-4.029 9-9s-4.029-9-9-9H18v-14.01h82.08c4.971 0 9-4.029 9-9s-4.029-9-9-9H18v-14.01h165c4.971 0 9-4.029 9-9s-4.029-9-9-9H18V93.951h390v14.016H295.71c-4.971 0-9 4.029-9 9s4.029 9 9 9H408v14.01H306.858c-4.971 0-9 4.029-9 9s4.029 9 9 9H408v14.01H280.911c-4.971 0-9 4.029-9 9s4.029 9 9 9H408v14.01h-68.95c-4.971 0-9 4.029-9 9s4.029 9 9 9H408v14.02h-72.99c-4.971 0-9 4.029-9 9s4.029 9 9 9H408v14.01h-86.09c-4.971 0-9 4.029-9 9s4.029 9 9 9H408v14.01H236c-4.971 0-9 4.029-9 9s4.029 9 9 9h172v14.013H18v-14.014zM408 61.938V75.95H18V61.938h390zM18 364.062V350.05h390v14.012H18z"/><path d="M230.058 244.782l46.222 46.222c1.757 1.757 4.061 2.636 6.364 2.636s4.606-.879 6.364-2.636c20.833-20.833 32.306-48.535 32.306-78.004a9 9 0 0 0-9-9h-65.35a36.606 36.606 0 0 0-4.171-10.069l46.211-46.211a9 9 0 0 0 0-12.728c-20.833-20.833-48.535-32.306-78.003-32.306a9 9 0 0 0-9 9v65.376a36.856 36.856 0 0 0-10.059 4.156l-46.222-46.222a9 9 0 0 0-12.728 0c-20.833 20.833-32.306 48.535-32.306 78.004a9 9 0 0 0 9 9h65.376a36.878 36.878 0 0 0 4.155 10.058l-46.222 46.222a9 9 0 0 0 0 12.728c20.833 20.833 48.535 32.306 78.004 32.306a9 9 0 0 0 9-9v-65.376a36.843 36.843 0 0 0 10.059-4.156zm52.281 26.826l-39.544-39.543a36.598 36.598 0 0 0 4.168-10.064h55.92c-1.757 18.287-8.859 35.435-20.544 49.607zM269.607 141.66l-39.554 39.555a36.88 36.88 0 0 0-10.054-4.153v-55.946c18.289 1.758 35.437 8.859 49.608 20.544zM211 193.94c5.091 0 9.877 1.983 13.477 5.583 3.6 3.6 5.582 8.386 5.582 13.478s-1.982 9.877-5.582 13.478A18.935 18.935 0 0 1 211 232.062a18.939 18.939 0 0 1-13.478-5.583c-3.6-3.6-5.583-8.386-5.583-13.478s1.983-9.877 5.583-13.478A18.939 18.939 0 0 1 211 193.94zm-71.34-39.548l39.555 39.555A36.84 36.84 0 0 0 175.063 204h-55.946c1.757-18.288 8.858-35.436 20.543-49.608zm12.732 129.948l39.554-39.555A36.893 36.893 0 0 0 202 248.938v55.946c-18.288-1.758-35.436-8.859-49.608-20.544z"/></svg>