<svg xmlns="http://www.w3.org/2000/svg" viewBox="0 0 441.685 441.685"><path d="M429.179 375.509l-104.78-104.78-1.568-7.857a24.736 24.736 0 0 0-17.112-18.863 24.735 24.735 0 0 0-24.704 6.192l-9.629 9.629-29.289-29.289 90.885-90.885c7.746-7.747 17.535-13.674 28.308-17.142 9.454-3.043 18.182-8.383 25.241-15.443 12.195-12.194 18.761-28.408 18.489-45.654-.271-17.246-7.36-33.259-19.96-45.089a8.999 8.999 0 0 0-14.752 3.881l-10.225 32.774a14.851 14.851 0 0 1-7.327 8.787 14.849 14.849 0 0 1-11.395 1.031 14.846 14.846 0 0 1-8.786-7.327 14.852 14.852 0 0 1-1.032-11.394l10.107-32.399A9 9 0 0 0 331.611.118c-11.704 1.907-22.555 7.016-31.381 14.775-15.525 13.65-23.428 34.041-21.139 54.544 2.282 20.44-5.01 40.765-20.008 55.762l-61.164 61.165L71.738 60.172l1.896-26.397a8.997 8.997 0 0 0-4.512-8.458L30.979 3.52a9 9 0 0 0-10.83 1.45L3.803 21.317a9 9 0 0 0-1.45 10.829l21.796 38.143a9 9 0 0 0 8.458 4.512l26.407-1.896 126.178 126.188-90.881 90.881c-7.747 7.747-17.536 13.674-28.309 17.142-9.453 3.043-18.182 8.383-25.241 15.442C28.566 334.753 22 350.967 22.272 368.213s7.36 33.259 19.96 45.088a9.001 9.001 0 0 0 14.752-3.881l10.225-32.774c2.455-7.868 10.852-12.277 18.722-9.817a14.846 14.846 0 0 1 8.786 7.327 14.852 14.852 0 0 1 1.032 11.394l-10.107 32.399a9 9 0 0 0 10.039 11.564c11.704-1.907 22.555-7.017 31.38-14.775 15.526-13.65 23.429-34.041 21.139-54.544-2.282-20.44 5.01-40.765 20.008-55.762l61.161-61.161 29.289 29.29-9.625 9.625a24.734 24.734 0 0 0-6.192 24.704 24.732 24.732 0 0 0 18.862 17.111l7.857 1.568 104.78 104.78c7.56 7.56 17.487 11.34 27.418 11.339 9.928-.001 19.86-3.78 27.418-11.339 15.121-15.121 15.121-39.721.003-54.84zM54.047 55.214l-17.08 1.227-15.575-27.257 6.625-6.625 27.257 15.576-1.227 17.079zm101.434 236.487c-18.888 18.888-28.062 44.579-25.169 70.487 1.637 14.667-4.021 29.256-15.135 39.028a44.255 44.255 0 0 1-7.037 5.056l4.793-15.364c2.621-8.401 1.813-17.32-2.274-25.115-4.087-7.794-10.965-13.53-19.367-16.15a33.058 33.058 0 0 0-9.852-1.511c-5.258 0-10.474 1.273-15.263 3.785-7.794 4.087-13.53 10.965-16.151 19.367L44.999 387.4c-2.989-5.972-4.619-12.585-4.728-19.472-.194-12.332 4.5-23.924 13.219-32.643 5.121-5.121 11.187-8.834 18.029-11.036 13.48-4.339 25.764-11.79 35.521-21.548l164.773-164.773c18.888-18.888 28.062-44.579 25.169-70.487-1.637-14.666 4.021-29.256 15.135-39.029a44.255 44.255 0 0 1 7.037-5.056L314.36 38.72c-2.621 8.401-1.813 17.32 2.274 25.115 4.087 7.794 10.965 13.53 19.367 16.15s17.321 1.813 25.115-2.274c7.794-4.087 13.53-10.965 16.151-19.367l5.028-16.116c2.989 5.972 4.62 12.585 4.728 19.473.194 12.331-4.5 23.924-13.219 32.643-5.121 5.121-11.187 8.833-18.029 11.036-13.481 4.339-25.764 11.791-35.521 21.548L155.481 291.701zm109.745 14.645c-3.593-.717-4.804-3.511-5.158-4.679s-.897-4.165 1.694-6.756l31.981-31.981c1.585-1.585 3.322-1.997 4.699-1.997.875 0 1.604.166 2.058.304 1.168.354 3.963 1.565 4.68 5.159l1.16 5.811-35.301 35.3-5.813-1.161zm151.225 111.272c-8.101 8.1-21.281 8.099-29.381 0L286.725 317.273l29.382-29.381 100.345 100.345c3.924 3.924 6.084 9.141 6.084 14.69s-2.161 10.767-6.085 14.691z"/></svg>