<svg xmlns="http://www.w3.org/2000/svg" viewBox="0 0 475.993 475.993"><path d="M237.997 451.276c13.39 0 24.283-10.894 24.283-24.283s-10.894-24.283-24.283-24.283-24.283 10.894-24.283 24.283 10.893 24.283 24.283 24.283zm0-30.566c3.465 0 6.283 2.819 6.283 6.283s-2.818 6.283-6.283 6.283-6.283-2.819-6.283-6.283 2.818-6.283 6.283-6.283z"/><path d="M286.56 229.463a8.98 8.98 0 0 0 3.433.684 9.003 9.003 0 0 0 3.44-17.32l-14.216-5.873v-31.182l7.343 3.033a8.98 8.98 0 0 0 3.433.684 9.003 9.003 0 0 0 3.44-17.32l-14.216-5.873v-50.292h9.796a9 9 0 0 0 9-9V62.993a9 9 0 0 0-9-9h-19.862a35.762 35.762 0 0 0 4.842-17.997C273.993 16.148 257.845 0 237.997 0S202 16.148 202 35.997a35.764 35.764 0 0 0 4.842 17.997H186.98a9 9 0 0 0-9 9v34.011a9 9 0 0 0 9 9h9.795v16.236l-7.342-3.033a9 9 0 0 0-6.873 16.636l14.215 5.872v31.182l-7.342-3.033c-4.596-1.899-9.857.289-11.755 4.882s.288 9.856 4.882 11.754l14.215 5.872v31.182l-7.342-3.033c-4.596-1.899-9.857.289-11.755 4.882s.288 9.856 4.882 11.754l14.215 5.872v31.182l-7.342-3.033c-4.596-1.899-9.857.289-11.755 4.882s.288 9.856 4.882 11.754l14.215 5.872v50.292h-9.795a9 9 0 0 0-9 9v34.011a9 9 0 0 0 9 9h13.102c-6.923 8.452-11.085 19.248-11.085 31 0 27.019 21.981 49 49 49s49-21.981 49-49c0-11.752-4.162-22.548-11.085-31h13.102a9 9 0 0 0 9-9v-34.011a9 9 0 0 0-9-9h-9.796v-16.237l7.343 3.033a8.98 8.98 0 0 0 3.433.684 9.003 9.003 0 0 0 3.44-17.32l-14.216-5.872v-31.181l7.343 3.033a8.98 8.98 0 0 0 3.433.684 9.003 9.003 0 0 0 3.44-17.32l-14.216-5.873v-31.18l7.342 3.033zM220 35.997C220 26.073 228.073 18 237.997 18c9.923 0 17.996 8.073 17.996 17.997s-8.073 17.997-17.996 17.997C228.073 53.993 220 45.92 220 35.997zm-24.02 35.996h84.033v16.011H195.98V71.993zm18.795 34.011h46.442v42.856l-46.442-19.185v-23.671zm0 43.148l46.442 19.185v31.182l-46.442-19.185v-31.182zm54.222 277.841c0 17.093-13.906 31-31 31s-31-13.907-31-31 13.906-31 31-31 31 13.907 31 31zm11.016-49H195.98v-16.011h84.033v16.011zm-18.796-34.011h-46.442v-42.857l46.442 19.185v23.672zm0-43.148l-46.442-19.185v-31.182l46.442 19.185v31.182zm0-50.658l-46.442-19.185V199.81l46.442 19.185v31.181z"/></svg>