<svg xmlns="http://www.w3.org/2000/svg" viewBox="0 0 443.36 443.36"><path d="M346.369 208.955h2.523c4.971 0 9-4.029 9-9s-4.029-9-9-9h-11.424l-3.825-8.374c-3.548-7.771-10.638-13.55-18.965-15.46-11.742-2.69-56.167-2.69-67.909 0-8.326 1.91-15.416 7.689-18.963 15.458l-3.826 8.375h-11.424c-4.971 0-9 4.029-9 9s4.029 9 9 9h2.522l-6.446 6.446c-4.907 4.907-7.254 11.938-6.279 18.808l2.497 17.605c.71 5.01 2.982 9.485 6.263 12.982v7.382a9 9 0 0 0 9 9h25.837c4.884 0 8.849-3.892 8.987-8.742h51.577c.138 4.85 4.103 8.742 8.987 8.742h25.834a9 9 0 0 0 9-9v-7.382c3.281-3.497 5.552-7.972 6.264-12.982l2.497-17.606c.974-6.872-1.374-13.903-6.28-18.807l-6.447-6.445zm-117.766 45.481c-2.965 0-5.515-2.213-5.931-5.149l-1.041-7.342h15.16c4.971 0 9-4.029 9-9s-4.029-9-9-9h-11.247l3.112-3.112h104.136l3.111 3.112h-11.115c-4.971 0-9 4.029-9 9s4.029 9 9 9h15.03l-1.041 7.341c-.416 2.936-2.966 5.149-5.931 5.149H228.603zm22.188-69.77c9.23-2.115 50.634-2.116 59.864 0a9.694 9.694 0 0 1 6.613 5.393l5.836 12.774h-84.762l5.837-12.776a9.697 9.697 0 0 1 6.612-5.391z"/><path d="M297.733 234.019h-34.02c-4.971 0-9 4.029-9 9s4.029 9 9 9h34.02c4.971 0 9-4.029 9-9s-4.029-9-9-9z"/><path d="M390.037 91.725H127.846c-21.648 0-40.008 15.449-43.973 36.424H30.69c-16.923 0-30.69 13.768-30.69 30.69v24.11c0 16.922 13.768 30.69 30.69 30.69h43.119l-5.005 43.056a85.19 85.19 0 0 0 20.98 66.43 85.189 85.189 0 0 0 63.563 28.51h236.688c29.402 0 53.323-23.921 53.323-53.324V145.049c.002-29.403-23.919-53.324-53.321-53.324zM30.69 195.639c-6.997 0-12.69-5.693-12.69-12.69v-24.11c0-6.997 5.693-12.69 12.69-12.69h50.963l-5.752 49.49H30.69zm394.67 102.672c0 19.478-15.846 35.324-35.323 35.324H153.349a67.177 67.177 0 0 1-50.121-22.48 67.178 67.178 0 0 1-16.544-52.381l14.572-125.37c1.569-13.499 13-23.678 26.59-23.678h262.191c19.478 0 35.323 15.846 35.323 35.323v153.262z"/><path d="M371.589 132.725H194.988c-15.621 0-28.762 11.701-30.565 27.219L150.896 276.31a30.798 30.798 0 0 0 7.586 24.018 30.799 30.799 0 0 0 22.979 10.307h190.127c16.968 0 30.771-13.804 30.771-30.771V163.497c.001-16.967-13.802-30.772-30.77-30.772zm12.771 147.139c0 7.042-5.729 12.771-12.771 12.771H181.462c-3.693 0-7.081-1.519-9.537-4.278-2.457-2.759-3.575-6.299-3.149-9.969l13.526-116.366a12.772 12.772 0 0 1 12.687-11.297H371.59c7.042 0 12.771 5.729 12.771 12.771v116.368zm-255.368-88.721c13.233 0 23.999-10.766 23.999-23.999 0-13.233-10.766-24-23.999-24s-23.999 10.766-23.999 24c0 13.233 10.766 23.999 23.999 23.999zm0-29.999c3.308 0 5.999 2.691 5.999 6s-2.691 5.999-5.999 5.999-5.999-2.691-5.999-5.999 2.692-6 5.999-6zm-6.399 43.497c-13.233 0-24 10.766-24 23.999 0 13.233 10.767 24 24 24s23.999-10.766 23.999-24c0-13.233-10.766-23.999-23.999-23.999zm0 29.999c-3.309 0-6-2.691-6-6s2.691-5.999 6-5.999c3.308 0 5.999 2.691 5.999 5.999s-2.692 6-5.999 6z"/></svg>