<svg xmlns="http://www.w3.org/2000/svg" viewBox="0 0 424.513 424.513"><path d="M424.513 45.469a9 9 0 0 0-2.636-6.364l-24.724-24.724a9.001 9.001 0 0 0-12.728 0l-32.044 32.044a41.09 41.09 0 0 0-14.798-2.745c-10.983 0-21.308 4.277-29.073 12.042a8.999 8.999 0 0 0-1.654 2.276l-5.143 10.088a25.698 25.698 0 0 1-11.298 11.298c-8.303 4.232-14.929 10.858-19.162 19.161a25.708 25.708 0 0 1-11.299 11.299 80.405 80.405 0 0 0-20.37 14.803l-52.816 52.816-13.496-13.496a9 9 0 0 0-12.728 0l-25.903 25.903a9 9 0 0 0 0 12.728l7.96 7.96-6.867 6.867-7.96-7.96a9 9 0 0 0-12.728 0l-35.919 35.919a9 9 0 0 0 0 12.728l7.96 7.96-76.9 76.899c-13.585 13.586-13.585 35.692 0 49.278l16.909 16.909c1.757 1.757 4.061 2.636 6.364 2.636s4.606-.879 6.364-2.636a9 9 0 0 0 0-12.728l-16.909-16.909c-6.568-6.568-6.568-17.255 0-23.823l9.573-9.573 22.457 22.457-6.833 6.833a9 9 0 0 0 6.364 15.364 8.975 8.975 0 0 0 6.364-2.636l6.833-6.833 28.821 28.821a9 9 0 0 0 12.728 0l60.962-60.962 7.96 7.96a9 9 0 0 0 12.728 0l35.919-35.919a9 9 0 0 0 0-12.728l-7.96-7.96 6.867-6.866 7.959 7.959c1.758 1.757 4.061 2.636 6.364 2.636s4.606-.879 6.364-2.636l25.903-25.903a9 9 0 0 0 0-12.728l-13.496-13.496 52.815-52.816a80.427 80.427 0 0 0 14.804-20.37 25.715 25.715 0 0 1 11.299-11.3c8.304-4.232 14.93-10.858 19.161-19.16a25.705 25.705 0 0 1 11.298-11.299l10.088-5.142a9.028 9.028 0 0 0 2.277-1.654c7.766-7.766 12.042-18.09 12.042-29.073 0-5.144-.949-10.138-2.745-14.798l32.044-32.044a8.989 8.989 0 0 0 2.638-6.363zM102.859 391.04l-57.641-57.641 54.598-54.598 57.641 57.641-54.598 54.598zm81.649-53.002L98.22 251.75l23.191-23.191 86.288 86.288-23.191 23.191zm21.596-50.243l-57.641-57.641 6.867-6.867 57.641 57.641-6.867 6.867zm33.918-5.271l-86.288-86.288 13.175-13.175 86.289 86.288-13.176 13.175zM353.927 68.45l13.88 13.88a22.963 22.963 0 0 1 6.771 16.345 22.925 22.925 0 0 1-4.827 14.115l-46.283-46.283a22.928 22.928 0 0 1 14.115-4.826 22.96 22.96 0 0 1 16.344 6.769zm-68.724 41.888l40.717 40.717c-6.317 4.007-11.449 9.52-15.031 16.156l-41.843-41.842c6.638-3.582 12.151-8.714 16.157-15.031zm-39.137 126.424l-46.569-46.569 52.815-52.816a61.99 61.99 0 0 1 1.675-1.61l46.505 46.505a61.968 61.968 0 0 1-1.611 1.675l-52.815 52.815zm94.77-99.093c-.318.624-.66 1.231-1.023 1.822l-43.045-43.045a26.284 26.284 0 0 1 1.822-1.023 43.58 43.58 0 0 0 15.342-12.996l39.901 39.9a43.556 43.556 0 0 0-12.997 15.342zm38.758-69.009l-11.996-11.996 23.192-23.191 11.996 11.996-23.192 23.191z"/></svg>