<svg xmlns="http://www.w3.org/2000/svg" viewBox="0 0 451.043 451.043"><path d="M384.99 66.054C342.394 23.459 285.761 0 225.521 0 165.283 0 108.649 23.459 66.054 66.054S0 165.283 0 225.522 23.458 342.394 66.054 384.99s99.229 66.054 159.468 66.054c60.239 0 116.873-23.458 159.468-66.054 42.595-42.595 66.054-99.229 66.054-159.468S427.585 108.649 384.99 66.054zM225.521 433.043C111.094 433.043 18 339.949 18 225.522S111.094 18 225.521 18c114.428 0 207.522 93.094 207.522 207.521S339.95 433.043 225.521 433.043z"/><path d="M225.521 38.13c-103.329 0-187.392 84.063-187.392 187.392s84.063 187.393 187.392 187.393 187.393-84.064 187.393-187.393S328.85 38.13 225.521 38.13zm22.313 321.172h-44.641c-16.87-56.333-59.586-101.839-114.825-122.151l15.428-65.49c39.619-9.641 80.54-14.541 121.728-14.541 41.202 0 82.119 4.902 121.724 14.551l15.425 65.474c-55.246 20.307-97.968 65.816-114.839 122.157zM56.129 225.522c0-14.331 1.796-28.25 5.163-41.55a513.41 513.41 0 0 1 22.784-7.099l-12.931 54.889a186.7 186.7 0 0 0-14.978-3.261c-.017-.992-.038-1.983-.038-2.979zm323.769 6.237l-12.929-54.881a506.414 506.414 0 0 1 22.784 7.1 169.155 169.155 0 0 1 5.161 41.544c0 .995-.021 1.986-.038 2.977a186.696 186.696 0 0 0-14.978 3.26zM225.521 56.13c71.27 0 132.395 44.246 157.365 106.709a520.07 520.07 0 0 0-25.917-7.308c-42.686-10.888-86.91-16.409-131.445-16.409-44.517 0-88.744 5.518-131.45 16.398a525.748 525.748 0 0 0-25.917 7.317C93.128 100.374 154.252 56.13 225.521 56.13zM57.492 247.061c70.855 14.342 125.07 72.703 134.195 144.456-70.359-14.319-125.009-72.387-134.195-144.456zm152.61 147.144a187.06 187.06 0 0 0-2.472-16.903h35.769a186.697 186.697 0 0 0-2.472 16.905c-5.076.46-10.211.708-15.405.708a170.899 170.899 0 0 1-15.42-.71zm49.239-2.685c9.125-71.766 63.347-130.129 134.211-144.462-9.186 72.076-63.844 130.147-134.211 144.462z"/><path d="M225.521 174.343c-28.22 0-51.179 22.959-51.179 51.179 0 28.221 22.959 51.18 51.179 51.18 28.221 0 51.18-22.959 51.18-51.18 0-28.22-22.959-51.179-51.18-51.179zm0 84.358c-18.295 0-33.179-14.884-33.179-33.18 0-18.295 14.884-33.179 33.179-33.179s33.18 14.884 33.18 33.179c0 18.296-14.884 33.18-33.18 33.18z"/></svg>