<svg xmlns="http://www.w3.org/2000/svg" viewBox="0 0 487.52 487.52"><path d="M243.757 143.887c-69.016 0-125.164 56.148-125.164 125.163 0 69.016 56.148 125.164 125.164 125.164s125.164-56.148 125.164-125.164c0-69.015-56.148-125.163-125.164-125.163zm0 232.23c-46.298 0-85.822-29.54-100.725-70.761l10.338-2.77a9 9 0 0 0-4.658-17.386l-10.348 2.772a107.298 107.298 0 0 1-1.674-18.922c0-6.456.574-12.78 1.675-18.924l10.347 2.772c.78.209 1.564.309 2.335.309a9.005 9.005 0 0 0 8.688-6.673c1.287-4.801-1.563-9.736-6.364-11.023l-10.338-2.77a107.102 107.102 0 0 1 18.961-32.731l7.528 7.528c1.757 1.757 4.061 2.636 6.364 2.636s4.606-.879 6.364-2.636a9 9 0 0 0 0-12.728l-7.527-7.527a107.101 107.101 0 0 1 32.732-18.959l2.769 10.335a9.005 9.005 0 0 0 8.688 6.673c.771 0 1.555-.1 2.335-.309 4.801-1.287 7.651-6.222 6.364-11.022l-2.771-10.344a107.264 107.264 0 0 1 18.919-1.674c6.456 0 12.78.574 18.925 1.675L259.911 174c-1.287 4.801 1.563 9.736 6.364 11.023.78.209 1.564.309 2.335.309a9.005 9.005 0 0 0 8.688-6.673l2.769-10.333a107.126 107.126 0 0 1 32.73 18.96l-7.525 7.524a9 9 0 0 0 6.364 15.364 8.975 8.975 0 0 0 6.364-2.636l7.524-7.524a107.103 107.103 0 0 1 18.959 32.73l-10.333 2.769a9.001 9.001 0 0 0 4.659 17.387l10.341-2.771a107.298 107.298 0 0 1 1.674 18.922c0 6.455-.574 12.778-1.674 18.921l-10.342-2.771a9 9 0 0 0-4.658 17.386l10.333 2.769c-14.903 41.22-54.427 70.761-100.726 70.761z"/><path d="M218.374 262.699c-1.696 6.78-.65 13.815 2.944 19.809 3.595 5.994 9.308 10.229 16.088 11.926 2.121.53 4.266.793 6.397.793 1.64 0 3.27-.165 4.875-.473l2.835 4.728a8.997 8.997 0 0 0 12.348 3.09 8.999 8.999 0 0 0 3.089-12.347l-2.833-4.723a26.076 26.076 0 0 0 5.023-10.1c1.696-6.78.65-13.815-2.944-19.81-5.794-9.663-16.885-14.236-27.359-12.242l-26.161-43.62c-2.557-4.263-8.084-5.646-12.347-3.089s-5.646 8.084-3.089 12.347l26.156 43.612a26.07 26.07 0 0 0-5.022 10.099zm27.365-1.57a8.112 8.112 0 0 1 5.021 3.721 8.114 8.114 0 0 1 .919 6.182 8.11 8.11 0 0 1-3.722 5.021 8.108 8.108 0 0 1-6.182.919 8.11 8.11 0 0 1-5.021-3.722 8.113 8.113 0 0 1-.919-6.182 8.11 8.11 0 0 1 3.722-5.021 8.118 8.118 0 0 1 6.182-.918z"/><path d="M357.84 67.796c-40.437 0-78.565 18.97-103.046 50.986a152.143 152.143 0 0 0-11.036-.406c-3.71 0-7.388.141-11.031.406-24.482-32.015-62.613-50.986-103.056-50.986C58.17 67.796 0 125.97 0 197.476c0 30.985 11.104 60.977 31.265 84.45 18.801 21.89 44.353 36.882 72.402 42.6 22.139 55.709 76.588 95.197 140.09 95.197 63.502 0 117.952-39.489 140.09-95.198 28.049-5.719 53.599-20.711 72.402-42.599 20.165-23.474 31.271-53.466 31.271-84.451 0-71.505-58.174-129.679-129.68-129.679zM44.92 270.198C27.561 249.988 18 224.161 18 197.476c0-61.581 50.095-111.68 111.67-111.68 31.356 0 61.098 13.246 82.107 36.007a149.023 149.023 0 0 0-10.492 2.677c-19.236-18.882-44.626-29.274-71.615-29.274-27.315 0-52.996 10.639-72.313 29.956C38.039 144.48 27.4 170.161 27.4 197.476c0 22.51 7.174 43.864 20.748 61.751 11.947 15.745 28.47 27.824 46.965 34.485a149.357 149.357 0 0 0 2.16 10.651c-20.192-6.121-38.421-17.944-52.353-34.165zm82.764-97.114l-17.548-25.103a9 9 0 1 0-14.753 10.313l16.97 24.277a22.771 22.771 0 0 0-5.544 14.906c0 2.261.347 4.498.998 6.643-9.434 19.673-14.724 41.695-14.724 64.931 0 1.458.026 2.909.067 4.357-11.965-5.785-22.58-14.408-30.663-25.061a84.007 84.007 0 0 1-11.457-20.485l6.099-1.634c4.801-1.287 7.651-6.222 6.364-11.022-1.287-4.802-6.224-7.65-11.022-6.364l-6.073 1.627a85.452 85.452 0 0 1-.997-12.992 85.3 85.3 0 0 1 1.002-12.999l6.069 1.626c.78.209 1.563.309 2.335.309a9.005 9.005 0 0 0 8.688-6.673 8.999 8.999 0 0 0-6.364-11.022l-6.079-1.629a83.588 83.588 0 0 1 13.016-22.495l4.432 4.432c1.757 1.757 4.061 2.636 6.364 2.636s4.606-.879 6.364-2.636a9 9 0 0 0 0-12.728l-4.431-4.431a83.578 83.578 0 0 1 22.495-13.013l1.628 6.076a9.005 9.005 0 0 0 8.688 6.673c.771 0 1.555-.1 2.335-.309 4.801-1.287 7.651-6.222 6.364-11.022l-1.625-6.064c4.261-.656 8.599-1 12.991-1 4.394 0 8.734.345 12.996 1.001l-1.625 6.063c-1.287 4.801 1.563 9.736 6.364 11.023.78.209 1.564.309 2.335.309a9.005 9.005 0 0 0 8.688-6.673l1.628-6.074a83.563 83.563 0 0 1 22.094 12.702c-21.203 9.534-39.816 23.832-54.469 41.525zm116.073 228.64c-73.157 0-132.674-59.517-132.674-132.674S170.6 136.376 243.757 136.376s132.674 59.517 132.674 132.674-59.517 132.674-132.674 132.674zm83.707-282.87l1.628 6.075a9.005 9.005 0 0 0 8.688 6.673c.771 0 1.555-.1 2.335-.309 4.801-1.287 7.651-6.222 6.364-11.022l-1.625-6.064a85.27 85.27 0 0 1 12.987-1c4.396 0 8.737.345 13 1.001l-1.625 6.063c-1.287 4.801 1.563 9.736 6.364 11.023.78.209 1.564.309 2.335.309a9.005 9.005 0 0 0 8.688-6.673l1.628-6.074a83.49 83.49 0 0 1 22.489 13.018l-4.425 4.425a9 9 0 0 0 6.364 15.364 8.975 8.975 0 0 0 6.364-2.636l4.423-4.423a83.604 83.604 0 0 1 13.015 22.488l-6.068 1.626c-4.801 1.287-7.651 6.222-6.364 11.022a9.005 9.005 0 0 0 8.688 6.673c.771 0 1.555-.1 2.335-.309l6.059-1.624a85.283 85.283 0 0 1 1.002 12.997c0 4.393-.343 8.729-.997 12.99l-6.064-1.625c-4.798-1.285-9.736 1.563-11.022 6.364a8.999 8.999 0 0 0 6.364 11.022l6.09 1.632a84.025 84.025 0 0 1-11.458 20.488c-8.082 10.651-18.695 19.273-30.659 25.057.041-1.447.067-2.898.067-4.355 0-23.234-5.29-45.255-14.722-64.926a22.821 22.821 0 0 0 1.001-6.647 22.77 22.77 0 0 0-5.78-15.175l15.41-24.072a9.001 9.001 0 0 0-15.161-9.705l-15.562 24.309c-14.62-17.575-33.152-31.784-54.25-41.275a83.502 83.502 0 0 1 22.094-12.705zm115.132 151.344c-13.934 16.22-32.162 28.043-52.354 34.165a149.357 149.357 0 0 0 2.16-10.651c18.494-6.662 35.014-18.74 46.961-34.484 13.573-17.888 20.748-39.241 20.748-61.751 0-27.202-10.558-52.784-29.729-72.071-.075-.081-.143-.167-.222-.246-.079-.079-.165-.147-.246-.223-19.276-19.173-44.856-29.73-72.073-29.73-26.997 0-52.396 10.403-71.607 29.275a148.996 148.996 0 0 0-10.491-2.677c21.008-22.762 50.747-36.008 82.098-36.008 61.581 0 111.68 50.1 111.68 111.68-.001 26.683-9.563 52.51-26.925 72.721z"/><path d="M267.257 332.137h-47c-4.971 0-9 4.029-9 9s4.029 9 9 9h47c4.971 0 9-4.029 9-9s-4.029-9-9-9z"/></svg>