<svg xmlns="http://www.w3.org/2000/svg" viewBox="0 0 394.481 394.481"><path d="M349.949 99.962H145.623V80.964c3.853-1.019 6.697-4.518 6.697-8.691V38.254a9 9 0 0 0-9-9H46.969a9 9 0 0 0-9 9v34.019c0 4.173 2.844 7.672 6.696 8.691v18.999h-.132C19.978 99.962 0 119.94 0 144.495v176.2c0 24.555 19.978 44.532 44.533 44.532h305.416c24.555 0 44.532-19.977 44.532-44.532v-176.2c0-24.555-19.977-44.533-44.532-44.533zM55.969 47.254h78.352v16.019H55.969V47.254zm6.696 34.018h64.958v18.69H62.665v-18.69zm313.816 239.423c0 14.63-11.902 26.532-26.532 26.532H44.533C29.902 347.228 18 335.325 18 320.695v-176.2c0-14.63 11.902-26.533 26.533-26.533h305.416c14.63 0 26.532 11.902 26.532 26.533v176.2z"/><path d="M361.716 196.792a86.178 86.178 0 0 0-60.06.005 68.177 68.177 0 0 1-47.506-.003 86.172 86.172 0 0 0-60.052 0l-.078.029a68.173 68.173 0 0 1-47.432-.028 86.183 86.183 0 0 0-60.054 0 68.157 68.157 0 0 1-47.505 0c-4.659-1.734-9.84.64-11.572 5.298s.64 9.84 5.299 11.573a86.161 86.161 0 0 0 60.052 0 68.177 68.177 0 0 1 47.508 0 86.098 86.098 0 0 0 30.026 5.4c10.171 0 20.345-1.8 30.025-5.4l.083-.031a68.168 68.168 0 0 1 47.43.031 86.18 86.18 0 0 0 60.063-.004 68.171 68.171 0 0 1 47.498 0 9 9 0 0 0 6.275-16.87z"/></svg>