<svg xmlns="http://www.w3.org/2000/svg" viewBox="0 0 478.072 478.072"><path d="M464.301 147.426a55.13 55.13 0 0 0-41.373-18.69H271.887c-37.079 0-72.166 14.214-98.798 40.025L2.737 333.874a8.998 8.998 0 0 0 6.264 15.462h440.57a9.002 9.002 0 0 0 8.929-7.866l19.132-150.646a55.138 55.138 0 0 0-13.331-43.398zM68.468 331.336l59.246-57.423v57.423H68.468zm77.246 0v-74.869l57.951-56.168c18.388-17.822 42.617-27.637 68.225-27.637h64.883v73.386a9 9 0 0 0 12.771 8.171 71.155 71.155 0 0 1 51.583-3.185l23.619 7.542-9.239 72.76H145.714zm288.339-146.049l-6.127 48.25-60.874-60.875h55.878c3.266 0 6.254 1.35 8.413 3.8s3.122 5.585 2.71 8.825zm-79.28.551l46.534 46.535a89.02 89.02 0 0 0-46.534.746v-47.281zm105.002 2.717l-18.134 142.781h-7.989l18.258-143.782c1.056-8.319-1.518-16.699-7.062-22.991s-13.533-9.901-21.919-9.901H271.89c-30.31 0-58.987 11.617-80.752 32.712L42.606 331.336H31.217l154.399-149.65c23.255-22.538 53.894-34.95 86.27-34.95h151.041a37.126 37.126 0 0 1 27.865 12.587 37.132 37.132 0 0 1 8.983 29.232z"/></svg>