<svg xmlns="http://www.w3.org/2000/svg" viewBox="0 0 412 412"><path d="M347 344h-28.752L227.115 6.653A9 9 0 0 0 218.427 0h-24.853a9 9 0 0 0-8.688 6.653L93.752 344H65a9 9 0 0 0-9 9v50a9 9 0 0 0 9 9h282a9 9 0 0 0 9-9v-50a9 9 0 0 0-9-9zM245.352 143.18h-78.704l13.948-51.63h50.809l13.947 51.63zm4.863 18l13.95 51.64h-116.33l13.95-51.64h88.43zm18.813 69.64l13.948 51.632H129.024l13.948-51.632h126.056zM200.465 18h11.071l15.007 55.55h-41.084L200.465 18zm-76.303 282.452h163.677L299.603 344H112.397l11.765-43.548zM338 394H74v-32h264v32z"/></svg>