<svg xmlns="http://www.w3.org/2000/svg" viewBox="0 0 417.649 417.649"><path d="M382.348 361.639c-19.466 0-35.302-15.836-35.302-35.302v-82.21h-45.078v82.21c0 19.465-15.836 35.302-35.302 35.302s-35.302-15.836-35.302-35.302v-82.21h-45.079v82.21c0 19.465-15.836 35.302-35.302 35.302s-35.302-15.836-35.302-35.302v-82.21h-80.38C15.836 244.126 0 228.29 0 208.825V91.313c0-19.465 15.836-35.302 35.302-35.302s35.302 15.836 35.302 35.302v82.21h45.079v-82.21c0-19.465 15.836-35.302 35.302-35.302s35.302 15.836 35.302 35.302v82.21h45.079v-82.21c0-19.465 15.836-35.302 35.302-35.302s35.302 15.836 35.302 35.302v82.21h45.078v-82.21c0-19.465 15.836-35.302 35.302-35.302s35.302 15.836 35.302 35.302v235.024c-.003 19.465-15.839 35.302-35.304 35.302zm-89.38-135.513h63.078a9 9 0 0 1 9 9v91.21c0 9.54 7.762 17.302 17.302 17.302s17.302-7.762 17.302-17.302V91.313c0-9.54-7.762-17.302-17.302-17.302s-17.302 7.762-17.302 17.302v91.21a9 9 0 0 1-9 9h-63.078a9 9 0 0 1-9-9v-91.21c0-9.54-7.762-17.302-17.302-17.302s-17.302 7.762-17.302 17.302v91.21a9 9 0 0 1-9 9h-63.079a9 9 0 0 1-9-9v-91.21c0-9.54-7.762-17.302-17.302-17.302s-17.302 7.762-17.302 17.302v91.21a9 9 0 0 1-9 9H61.604a9 9 0 0 1-9-9v-91.21c0-9.54-7.762-17.302-17.302-17.302S18 81.772 18 91.313v117.512c0 9.54 7.762 17.302 17.302 17.302h89.38a9 9 0 0 1 9 9v91.21c0 9.54 7.762 17.302 17.302 17.302s17.302-7.762 17.302-17.302v-91.21a9 9 0 0 1 9-9h63.079a9 9 0 0 1 9 9v91.21c0 9.54 7.762 17.302 17.302 17.302s17.302-7.762 17.302-17.302v-91.21a8.999 8.999 0 0 1 8.999-9.001z"/></svg>