<svg xmlns="http://www.w3.org/2000/svg" viewBox="0 0 430.479 430.479"><path d="M242.584 101.996V50.998a9 9 0 0 0-9-9H80.591a9 9 0 0 0-9 9v50.998a9 9 0 0 0 9 9h152.993a9 9 0 0 0 9-9zm-18-9H89.591V59.998h134.993v32.998zm-20.829 56.633c-25.732-25.733-67.603-25.731-93.335 0-25.731 25.732-25.731 67.602 0 93.333 12.866 12.866 29.767 19.299 46.668 19.299 16.9 0 33.801-6.433 46.667-19.299 25.732-25.732 25.732-67.601 0-93.333zm-12.729 12.727c16.538 16.539 18.45 42.237 5.757 60.907L130.119 156.6a47.935 47.935 0 0 1 26.968-8.279c12.292 0 24.583 4.679 33.939 14.035zm-67.878 67.879c-16.538-16.539-18.45-42.237-5.757-60.907l66.664 66.664c-18.669 12.692-44.369 10.781-60.907-5.757z"/><path d="M381.388 43.756V9c0-4.971-4.029-9-9-9s-9 4.029-9 9v34.756c-8.786 3.568-14.999 12.19-14.999 22.241v73.497a9 9 0 0 0 9 9h5.999v181.087c0 45.71-37.188 82.899-82.899 82.899-44.568 0-81.019-35.359-82.812-79.495h32.792v5.192c0 26.084 21.222 47.305 47.306 47.305s47.305-21.221 47.305-47.305V148.494h6a9 9 0 0 0 9-9V65.997c0-10.051-6.214-18.673-15-22.241V9c0-4.971-4.029-9-9-9s-9 4.029-9 9v34.756c-8.786 3.568-14.999 12.19-14.999 22.241v73.497a9 9 0 0 0 9 9h5.999v189.683c0 16.159-13.146 29.305-29.305 29.305s-29.306-13.146-29.306-29.305v-6.209c18.076-4.107 31.613-20.294 31.613-39.595V40.613C280.082 18.219 261.863 0 239.469 0H74.706C52.312 0 34.093 18.219 34.093 40.613v251.759c0 22.394 18.219 40.613 40.613 40.613h104.948c1.802 54.065 46.34 97.495 100.836 97.495 55.636 0 100.898-45.263 100.898-100.899V148.494h5.999a9 9 0 0 0 9-9V65.997c0-10.051-6.214-18.673-14.999-22.241zm-59.309 22.241v64.497H310.08V65.997a6.006 6.006 0 0 1 5.999-5.999c3.309 0 6 2.691 6 5.999zM52.093 292.372V40.613C52.093 28.144 62.237 18 74.706 18h164.763c12.469 0 22.613 10.144 22.613 22.613v251.759c0 12.469-10.145 22.613-22.613 22.613H74.706c-12.469-.001-22.613-10.145-22.613-22.613zM378.387 65.997v64.497h-11.998V65.997c0-3.308 2.691-5.999 5.999-5.999s5.999 2.691 5.999 5.999z"/><path d="M244.083 302.985v-2.25h2.25c4.971 0 9-4.029 9-9s-4.029-9-9-9h-2.25v-2.25c0-4.971-4.029-9-9-9s-9 4.029-9 9v2.25h-2.249c-4.971 0-9 4.029-9 9s4.029 9 9 9h2.249v2.25c0 4.971 4.029 9 9 9s9-4.029 9-9zm-42.198-20.249h-22.499c-4.971 0-9 4.029-9 9s4.029 9 9 9h22.499a9 9 0 0 0 0-18z"/></svg>