<svg xmlns="http://www.w3.org/2000/svg" viewBox="0 0 466.852 466.852"><path d="M227.381 207.835c-17.445 0-31.637 14.192-31.637 31.637s14.192 31.637 31.637 31.637 31.638-14.193 31.638-31.637-14.192-31.637-31.638-31.637zm0 45.274c-7.52 0-13.637-6.118-13.637-13.637 0-7.52 6.118-13.637 13.637-13.637s13.638 6.118 13.638 13.637c0 7.52-6.118 13.637-13.638 13.637z"/><path d="M466.852 107.27c0-59.148-48.12-107.269-107.269-107.269-24.499 0-47.101 8.261-65.18 22.136-21.642-6.667-44.165-10.047-67.024-10.047-60.736 0-117.837 23.651-160.783 66.597C23.651 121.634 0 178.734 0 239.471c0 60.736 23.651 117.837 66.597 160.783 42.946 42.946 100.046 66.597 160.783 66.597 60.737 0 117.836-23.651 160.783-66.597 42.946-42.946 66.598-100.046 66.598-160.783 0-22.89-3.379-45.412-10.042-67.024 13.873-18.079 22.133-40.68 22.133-65.177zm-18 0c0 49.223-40.046 89.269-89.269 89.269s-89.269-40.046-89.269-89.269 40.046-89.269 89.269-89.269 89.269 40.046 89.269 89.269zM379.82 239.471c0 84.056-68.384 152.44-152.44 152.44S74.94 323.527 74.94 239.471s68.384-152.44 152.44-152.44c8.901 0 17.762.766 26.446 2.283a107.118 107.118 0 0 0-1.39 12.937 138.495 138.495 0 0 0-8.382-1.275 139.112 139.112 0 0 0-16.674-.995c-22.317 0-43.644 5.115-63.387 15.203-18.824 9.618-35.498 23.659-48.219 40.602-18.242 24.289-27.884 53.227-27.884 83.685 0 76.915 62.575 139.49 139.49 139.49 22.318 0 43.645-5.115 63.388-15.203 18.823-9.618 35.497-23.658 48.219-40.602 18.241-24.288 27.883-53.226 27.883-83.685 0-8.432-.773-16.817-2.266-25.053 4.385-.203 8.7-.673 12.934-1.39a153.829 153.829 0 0 1 2.282 26.443zm-33.707-25.776a122.175 122.175 0 0 1 2.756 25.776c0 12.959-2.017 25.596-5.917 37.604l-49.249-32.385c-2.539-1.668-2.813-4.205-2.813-5.219 0-1.013.274-3.55 2.814-5.22l36.297-23.863c5.22 1.5 10.602 2.614 16.112 3.307zm-62.296 5.515c-6.842 4.497-10.927 12.071-10.927 20.261s4.085 15.764 10.925 20.26l52.146 34.29a121.207 121.207 0 0 1-7.079 12.199l-55.74-28.008a24.182 24.182 0 0 0-23.012.667 24.18 24.18 0 0 0-12.084 19.595l-3.613 62.286c-2.338.132-4.69.2-7.053.2-2.369 0-4.72-.076-7.056-.21l-3.612-62.268c-.475-8.175-4.992-15.5-12.083-19.595s-15.694-4.344-23.011-.668l-55.704 27.987a121.592 121.592 0 0 1-7.082-12.216l52.112-34.258a24.18 24.18 0 0 0 10.928-20.262 24.179 24.179 0 0 0-10.928-20.262l-52.147-34.281a121.378 121.378 0 0 1 7.081-12.204l55.738 28.008a24.235 24.235 0 0 0 10.892 2.591c4.187 0 8.366-1.09 12.12-3.258a24.182 24.182 0 0 0 12.084-19.596l3.613-62.286a122.549 122.549 0 0 1 14.11.005l3.611 62.28a24.187 24.187 0 0 0 12.088 19.587 24.217 24.217 0 0 0 12.119 3.257c3.719 0 7.445-.86 10.888-2.588l19.427-9.761a107.666 107.666 0 0 0 17.118 11.24l-25.869 17.008zm33.882 101.535c-17.359 19.364-40.021 32.383-65.096 37.621l3.414-58.849c.176-3.037 2.235-4.543 3.113-5.05.878-.507 3.213-1.538 5.93-.172l52.639 26.45zm-115.546 37.574c-25.543-5.416-48.146-18.879-65.02-37.605l52.566-26.41c2.72-1.366 5.053-.334 5.93.172.877.507 2.938 2.013 3.114 5.05l3.41 58.793zM105.89 239.471c0-12.957 2.017-25.593 5.916-37.598l49.25 32.377c2.542 1.671 2.816 4.208 2.816 5.221s-.274 3.55-2.816 5.221l-49.212 32.352a121.048 121.048 0 0 1-5.954-37.573zm31.171-81.274c17.358-19.364 40.021-32.383 65.094-37.621l-3.413 58.849c-.176 3.037-2.236 4.543-3.114 5.05-.876.506-3.21 1.538-5.93.172l-52.637-26.45zm128.001 26.441c-2.715 1.364-5.053.334-5.931-.173-.878-.507-2.939-2.013-3.116-5.045l-3.408-58.796.552.117c2.726 21.663 11.939 41.333 25.624 57.003l-13.721 6.894zM227.38 448.851C111.927 448.851 18 354.923 18 239.471c0-115.453 93.927-209.38 209.38-209.38a209.81 209.81 0 0 1 51.648 6.428 107.312 107.312 0 0 0-20.696 35.331 171.69 171.69 0 0 0-30.952-2.819c-93.981 0-170.44 76.459-170.44 170.44s76.459 170.44 170.44 170.44 170.44-76.459 170.44-170.44c0-10.421-.956-20.794-2.818-30.948a107.35 107.35 0 0 0 35.337-20.7c4.259 16.784 6.422 34.095 6.422 51.649-.001 115.451-93.928 209.379-209.381 209.379z"/><path d="M359.583 185.506c43.139 0 78.236-35.096 78.236-78.236 0-43.14-35.097-78.236-78.236-78.236s-78.236 35.096-78.236 78.236c0 43.139 35.097 78.236 78.236 78.236zm0-18.155c-30.07 0-55.048-22.206-59.405-51.08h4.458a9 9 0 0 0 0-18h-4.458a59.467 59.467 0 0 1 3.477-12.906l3.834 2.213a9 9 0 0 0 12.294-3.295 9 9 0 0 0-3.296-12.294l-3.81-2.199a60.595 60.595 0 0 1 9.435-9.433l2.208 3.823a8.997 8.997 0 0 0 12.295 3.292 9 9 0 0 0 3.293-12.295l-2.218-3.841a59.504 59.504 0 0 1 12.89-3.472v4.463a9 9 0 0 0 18 0v-4.464a59.513 59.513 0 0 1 12.905 3.476l-2.222 3.852a8.999 8.999 0 0 0 3.297 12.293 8.997 8.997 0 0 0 12.293-3.297l2.208-3.827a60.582 60.582 0 0 1 9.433 9.433L402.671 72a9 9 0 1 0 9.002 15.587l3.841-2.218a59.542 59.542 0 0 1 3.475 12.902h-4.466a9 9 0 0 0 0 18h4.466c-4.357 28.874-29.335 51.08-59.406 51.08z"/><path d="M349.431 84.389a9 9 0 0 0-12.729 12.728l16.517 16.517c1.758 1.757 4.061 2.636 6.364 2.636s4.606-.879 6.364-2.636a9 9 0 0 0 0-12.728l-16.516-16.517z"/></svg>