<svg xmlns="http://www.w3.org/2000/svg" viewBox="0 0 454.756 454.756"><path d="M388.158 66.597C345.212 23.651 288.112 0 227.378 0S109.544 23.651 66.597 66.597C23.651 109.543 0 166.643 0 227.378s23.651 117.834 66.597 160.781c42.946 42.946 100.045 66.597 160.78 66.597s117.834-23.651 160.781-66.597c42.946-42.946 66.597-100.046 66.597-160.781s-23.651-117.835-66.597-160.781zm-160.78 370.159C111.926 436.756 18 342.829 18 227.378 18 111.927 111.926 18 227.378 18s209.378 93.927 209.378 209.378c-.001 115.451-93.927 209.378-209.378 209.378z"/><path d="M227.378 56.935c-93.982 0-170.443 76.46-170.443 170.443 0 93.983 76.46 170.443 170.443 170.443 93.983 0 170.443-76.46 170.443-170.443 0-93.983-76.461-170.443-170.443-170.443zm0 322.886c-84.057 0-152.443-68.386-152.443-152.443S143.32 74.935 227.378 74.935s152.443 68.385 152.443 152.443-68.386 152.443-152.443 152.443z"/><path d="M259.015 227.378c0-17.445-14.192-31.637-31.638-31.637-17.445 0-31.637 14.192-31.637 31.637s14.192 31.637 31.637 31.637c17.446 0 31.638-14.192 31.638-31.637zm-45.275 0c0-7.52 6.118-13.637 13.637-13.637 7.52 0 13.638 6.118 13.638 13.637 0 7.52-6.118 13.637-13.638 13.637-7.519 0-13.637-6.118-13.637-13.637z"/><path d="M227.378 87.886c-76.916 0-139.491 62.575-139.491 139.491s62.576 139.491 139.491 139.491c76.916 0 139.492-62.575 139.492-139.491S304.294 87.886 227.378 87.886zm121.491 139.492c0 13.109-2.096 25.737-5.955 37.575l-49.216-32.354c-2.542-1.671-2.816-4.208-2.816-5.221s.274-3.551 2.816-5.221l49.215-32.354a120.964 120.964 0 0 1 5.956 37.575zm-31.241-81.243l-52.572 26.409c-2.719 1.366-5.052.334-5.93-.172-.877-.507-2.938-2.013-3.114-5.05l-3.411-58.795c25.547 5.416 48.152 18.88 65.027 37.608zm-115.479-37.607l-3.411 58.803c-.176 3.036-2.236 4.543-3.113 5.049-.878.507-3.213 1.537-5.93.172l-52.569-26.415c16.874-18.728 39.479-32.192 65.023-37.609zm-96.263 118.85c0-13.109 2.096-25.736 5.955-37.574l49.212 32.352c2.542 1.671 2.816 4.208 2.816 5.221s-.274 3.55-2.816 5.221l-49.212 32.352a121.013 121.013 0 0 1-5.955-37.572zm31.242 81.243l52.567-26.411c2.719-1.365 5.052-.334 5.93.172.877.507 2.938 2.013 3.114 5.049l3.411 58.796c-25.544-5.416-48.147-18.879-65.022-37.606zm83.193 40.038l-3.612-62.27a24.184 24.184 0 0 0-12.083-19.595 24.18 24.18 0 0 0-23.011-.668l-55.705 27.987a121.488 121.488 0 0 1-7.081-12.215l52.112-34.259a24.179 24.179 0 0 0 10.928-20.262 24.182 24.182 0 0 0-10.928-20.263l-52.112-34.258a121.787 121.787 0 0 1 7.078-12.211l55.705 27.991a24.234 24.234 0 0 0 10.891 2.591c4.188 0 8.366-1.09 12.121-3.258a24.18 24.18 0 0 0 12.083-19.595l3.612-62.277a123.17 123.17 0 0 1 7.057-.21c2.368 0 4.719.076 7.054.21l3.612 62.269a24.182 24.182 0 0 0 12.083 19.595 24.22 24.22 0 0 0 12.122 3.259c3.72 0 7.447-.86 10.889-2.59l55.71-27.986a121.603 121.603 0 0 1 7.079 12.211l-52.115 34.26a24.18 24.18 0 0 0-10.928 20.262 24.179 24.179 0 0 0 10.928 20.262l52.116 34.261a121.66 121.66 0 0 1-7.078 12.21l-55.709-27.993a24.182 24.182 0 0 0-23.012.667 24.182 24.182 0 0 0-12.084 19.596l-3.612 62.279c-2.335.134-4.685.21-7.053.21-2.37 0-4.721-.076-7.057-.21zm32.281-2.431l3.411-58.805c.176-3.037 2.236-4.543 3.114-5.05.877-.506 3.212-1.538 5.93-.172l52.573 26.417c-16.876 18.729-39.482 32.194-65.028 37.61z"/></svg>